<?xml version="1.0" encoding="UTF-8"?>
<!--
Font Awesome Pro 5.13.0 by @fontawesome - https://fontawesome.com
License - https://fontawesome.com/license (Commercial License)
-->

<!-- How to add new symbols here:
  - Copy paste them from node_modules/@fortawesome/fontawesome-pro/sprites/*.svg
  - These meta sprite files are huge, we only cherry-pick the FA icons we need
  - Reference them via:
    <svg class="myclass">
      <use href="../images/fontawesome-sprite.svg#symbol-id" />
    </svg>
-->
<svg xmlns="http://www.w3.org/2000/svg" style="display: none;">
  <!-- SOLID -->
  <symbol id="solid-alien-monster" viewBox="0 0 576 512">
    <path d="M560,128H528a15.99954,15.99954,0,0,0-16,16v80H480V176a15.99954,15.99954,0,0,0-16-16H416V96h48a16.00079,16.00079,0,0,0,16-16V48a15.99954,15.99954,0,0,0-16-16H432a15.99954,15.99954,0,0,0-16,16V64H368a15.99954,15.99954,0,0,0-16,16v48H224V80a15.99954,15.99954,0,0,0-16-16H160V48a15.99954,15.99954,0,0,0-16-16H112A15.99954,15.99954,0,0,0,96,48V80a16.00079,16.00079,0,0,0,16,16h48v64H112a15.99954,15.99954,0,0,0-16,16v48H64V144a15.99954,15.99954,0,0,0-16-16H16A15.99954,15.99954,0,0,0,0,144V272a16.00079,16.00079,0,0,0,16,16H64v80a16.00079,16.00079,0,0,0,16,16h48v80a16.00079,16.00079,0,0,0,16,16h96a16.00079,16.00079,0,0,0,16-16V432a15.99954,15.99954,0,0,0-16-16H192V384H384v32H336a15.99954,15.99954,0,0,0-16,16v32a16.00079,16.00079,0,0,0,16,16h96a16.00079,16.00079,0,0,0,16-16V384h48a16.00079,16.00079,0,0,0,16-16V288h48a16.00079,16.00079,0,0,0,16-16V144A15.99954,15.99954,0,0,0,560,128ZM224,320H160V224h64Zm192,0H352V224h64Z"></path>
  </symbol>
  <symbol id="solid-chart-bar" viewBox="0 0 512 512">
    <path d="M332.8 320h38.4c6.4 0 12.8-6.4 12.8-12.8V172.8c0-6.4-6.4-12.8-12.8-12.8h-38.4c-6.4 0-12.8 6.4-12.8 12.8v134.4c0 6.4 6.4 12.8 12.8 12.8zm96 0h38.4c6.4 0 12.8-6.4 12.8-12.8V76.8c0-6.4-6.4-12.8-12.8-12.8h-38.4c-6.4 0-12.8 6.4-12.8 12.8v230.4c0 6.4 6.4 12.8 12.8 12.8zm-288 0h38.4c6.4 0 12.8-6.4 12.8-12.8v-70.4c0-6.4-6.4-12.8-12.8-12.8h-38.4c-6.4 0-12.8 6.4-12.8 12.8v70.4c0 6.4 6.4 12.8 12.8 12.8zm96 0h38.4c6.4 0 12.8-6.4 12.8-12.8V108.8c0-6.4-6.4-12.8-12.8-12.8h-38.4c-6.4 0-12.8 6.4-12.8 12.8v198.4c0 6.4 6.4 12.8 12.8 12.8zM496 384H64V80c0-8.84-7.16-16-16-16H16C7.16 64 0 71.16 0 80v336c0 17.67 14.33 32 32 32h464c8.84 0 16-7.16 16-16v-32c0-8.84-7.16-16-16-16z"></path>
  </symbol>
  <symbol id="solid-chess" viewBox="0 0 512 512">
    <path d="M74 208H64a16 16 0 0 0-16 16v16a16 16 0 0 0 16 16h15.94A535.78 535.78 0 0 1 64 384h128a535.78 535.78 0 0 1-15.94-128H192a16 16 0 0 0 16-16v-16a16 16 0 0 0-16-16h-10l33.89-90.38a16 16 0 0 0-15-21.62H144V64h24a8 8 0 0 0 8-8V40a8 8 0 0 0-8-8h-24V8a8 8 0 0 0-8-8h-16a8 8 0 0 0-8 8v24H88a8 8 0 0 0-8 8v16a8 8 0 0 0 8 8h24v32H55.09a16 16 0 0 0-15 21.62zm173.16 251.58L224 448v-16a16 16 0 0 0-16-16H48a16 16 0 0 0-16 16v16L8.85 459.58A16 16 0 0 0 0 473.89V496a16 16 0 0 0 16 16h224a16 16 0 0 0 16-16v-22.11a16 16 0 0 0-8.84-14.31zm92.77-157.78l-3.29 82.2h126.72l-3.29-82.21 24.6-20.79A32 32 0 0 0 496 256.54V198a6 6 0 0 0-6-6h-26.38a6 6 0 0 0-6 6v26h-24.71v-26a6 6 0 0 0-6-6H373.1a6 6 0 0 0-6 6v26h-24.71v-26a6 6 0 0 0-6-6H310a6 6 0 0 0-6 6v58.6a32 32 0 0 0 11.36 24.4zM384 304a16 16 0 0 1 32 0v32h-32zm119.16 155.58L480 448v-16a16 16 0 0 0-16-16H336a16 16 0 0 0-16 16v16l-23.15 11.58a16 16 0 0 0-8.85 14.31V496a16 16 0 0 0 16 16h192a16 16 0 0 0 16-16v-22.11a16 16 0 0 0-8.84-14.31z"></path>
  </symbol>
  <symbol id="solid-code" viewBox="0 0 640 512">
    <path d="M278.9 511.5l-61-17.7c-6.4-1.8-10-8.5-8.2-14.9L346.2 8.7c1.8-6.4 8.5-10 14.9-8.2l61 17.7c6.4 1.8 10 8.5 8.2 14.9L293.8 503.3c-1.9 6.4-8.5 10.1-14.9 8.2zm-114-112.2l43.5-46.4c4.6-4.9 4.3-12.7-.8-17.2L117 256l90.6-79.7c5.1-4.5 5.5-12.3.8-17.2l-43.5-46.4c-4.5-4.8-12.1-5.1-17-.5L3.8 247.2c-5.1 4.7-5.1 12.8 0 17.5l144.1 135.1c4.9 4.6 12.5 4.4 17-.5zm327.2.6l144.1-135.1c5.1-4.7 5.1-12.8 0-17.5L492.1 112.1c-4.8-4.5-12.4-4.3-17 .5L431.6 159c-4.6 4.9-4.3 12.7.8 17.2L523 256l-90.6 79.7c-5.1 4.5-5.5 12.3-.8 17.2l43.5 46.4c4.5 4.9 12.1 5.1 17 .6z"></path>
  </symbol>
  <symbol id="solid-cog" viewBox="0 0 512 512">
    <path d="M487.4 315.7l-42.6-24.6c4.3-23.2 4.3-47 0-70.2l42.6-24.6c4.9-2.8 7.1-8.6 5.5-14-11.1-35.6-30-67.8-54.7-94.6-3.8-4.1-10-5.1-14.8-2.3L380.8 110c-17.9-15.4-38.5-27.3-60.8-35.1V25.8c0-5.6-3.9-10.5-9.4-11.7-36.7-8.2-74.3-7.8-109.2 0-5.5 1.2-9.4 6.1-9.4 11.7V75c-22.2 7.9-42.8 19.8-60.8 35.1L88.7 85.5c-4.9-2.8-11-1.9-14.8 2.3-24.7 26.7-43.6 58.9-54.7 94.6-1.7 5.4.6 11.2 5.5 14L67.3 221c-4.3 23.2-4.3 47 0 70.2l-42.6 24.6c-4.9 2.8-7.1 8.6-5.5 14 11.1 35.6 30 67.8 54.7 94.6 3.8 4.1 10 5.1 14.8 2.3l42.6-24.6c17.9 15.4 38.5 27.3 60.8 35.1v49.2c0 5.6 3.9 10.5 9.4 11.7 36.7 8.2 74.3 7.8 109.2 0 5.5-1.2 9.4-6.1 9.4-11.7v-49.2c22.2-7.9 42.8-19.8 60.8-35.1l42.6 24.6c4.9 2.8 11 1.9 14.8-2.3 24.7-26.7 43.6-58.9 54.7-94.6 1.5-5.5-.7-11.3-5.6-14.1zM256 336c-44.1 0-80-35.9-80-80s35.9-80 80-80 80 35.9 80 80-35.9 80-80 80z"></path>
  </symbol>
  <symbol id="solid-cogs" viewBox="0 0 640 512">
    <path d="M512.1 191l-8.2 14.3c-3 5.3-9.4 7.5-15.1 5.4-11.8-4.4-22.6-10.7-32.1-18.6-4.6-3.8-5.8-10.5-2.8-15.7l8.2-14.3c-6.9-8-12.3-17.3-15.9-27.4h-16.5c-6 0-11.2-4.3-12.2-10.3-2-12-2.1-24.6 0-37.1 1-6 6.2-10.4 12.2-10.4h16.5c3.6-10.1 9-19.4 15.9-27.4l-8.2-14.3c-3-5.2-1.9-11.9 2.8-15.7 9.5-7.9 20.4-14.2 32.1-18.6 5.7-2.1 12.1.1 15.1 5.4l8.2 14.3c10.5-1.9 21.2-1.9 31.7 0L552 6.3c3-5.3 9.4-7.5 15.1-5.4 11.8 4.4 22.6 10.7 32.1 18.6 4.6 3.8 5.8 10.5 2.8 15.7l-8.2 14.3c6.9 8 12.3 17.3 15.9 27.4h16.5c6 0 11.2 4.3 12.2 10.3 2 12 2.1 24.6 0 37.1-1 6-6.2 10.4-12.2 10.4h-16.5c-3.6 10.1-9 19.4-15.9 27.4l8.2 14.3c3 5.2 1.9 11.9-2.8 15.7-9.5 7.9-20.4 14.2-32.1 18.6-5.7 2.1-12.1-.1-15.1-5.4l-8.2-14.3c-10.4 1.9-21.2 1.9-31.7 0zm-10.5-58.8c38.5 29.6 82.4-14.3 52.8-52.8-38.5-29.7-82.4 14.3-52.8 52.8zM386.3 286.1l33.7 16.8c10.1 5.8 14.5 18.1 10.5 29.1-8.9 24.2-26.4 46.4-42.6 65.8-7.4 8.9-20.2 11.1-30.3 5.3l-29.1-16.8c-16 13.7-34.6 24.6-54.9 31.7v33.6c0 11.6-8.3 21.6-19.7 23.6-24.6 4.2-50.4 4.4-75.9 0-11.5-2-20-11.9-20-23.6V418c-20.3-7.2-38.9-18-54.9-31.7L74 403c-10 5.8-22.9 3.6-30.3-5.3-16.2-19.4-33.3-41.6-42.2-65.7-4-10.9.4-23.2 10.5-29.1l33.3-16.8c-3.9-20.9-3.9-42.4 0-63.4L12 205.8c-10.1-5.8-14.6-18.1-10.5-29 8.9-24.2 26-46.4 42.2-65.8 7.4-8.9 20.2-11.1 30.3-5.3l29.1 16.8c16-13.7 34.6-24.6 54.9-31.7V57.1c0-11.5 8.2-21.5 19.6-23.5 24.6-4.2 50.5-4.4 76-.1 11.5 2 20 11.9 20 23.6v33.6c20.3 7.2 38.9 18 54.9 31.7l29.1-16.8c10-5.8 22.9-3.6 30.3 5.3 16.2 19.4 33.2 41.6 42.1 65.8 4 10.9.1 23.2-10 29.1l-33.7 16.8c3.9 21 3.9 42.5 0 63.5zm-117.6 21.1c59.2-77-28.7-164.9-105.7-105.7-59.2 77 28.7 164.9 105.7 105.7zm243.4 182.7l-8.2 14.3c-3 5.3-9.4 7.5-15.1 5.4-11.8-4.4-22.6-10.7-32.1-18.6-4.6-3.8-5.8-10.5-2.8-15.7l8.2-14.3c-6.9-8-12.3-17.3-15.9-27.4h-16.5c-6 0-11.2-4.3-12.2-10.3-2-12-2.1-24.6 0-37.1 1-6 6.2-10.4 12.2-10.4h16.5c3.6-10.1 9-19.4 15.9-27.4l-8.2-14.3c-3-5.2-1.9-11.9 2.8-15.7 9.5-7.9 20.4-14.2 32.1-18.6 5.7-2.1 12.1.1 15.1 5.4l8.2 14.3c10.5-1.9 21.2-1.9 31.7 0l8.2-14.3c3-5.3 9.4-7.5 15.1-5.4 11.8 4.4 22.6 10.7 32.1 18.6 4.6 3.8 5.8 10.5 2.8 15.7l-8.2 14.3c6.9 8 12.3 17.3 15.9 27.4h16.5c6 0 11.2 4.3 12.2 10.3 2 12 2.1 24.6 0 37.1-1 6-6.2 10.4-12.2 10.4h-16.5c-3.6 10.1-9 19.4-15.9 27.4l8.2 14.3c3 5.2 1.9 11.9-2.8 15.7-9.5 7.9-20.4 14.2-32.1 18.6-5.7 2.1-12.1-.1-15.1-5.4l-8.2-14.3c-10.4 1.9-21.2 1.9-31.7 0zM501.6 431c38.5 29.6 82.4-14.3 52.8-52.8-38.5-29.6-82.4 14.3-52.8 52.8z"></path>
  </symbol>
  <symbol id="solid-dice" viewBox="0 0 640 512">
    <path d="M592 192H473.26c12.69 29.59 7.12 65.2-17 89.32L320 417.58V464c0 26.51 21.49 48 48 48h224c26.51 0 48-21.49 48-48V240c0-26.51-21.49-48-48-48zM480 376c-13.25 0-24-10.75-24-24 0-13.26 10.75-24 24-24s24 10.74 24 24c0 13.25-10.75 24-24 24zm-46.37-186.7L258.7 14.37c-19.16-19.16-50.23-19.16-69.39 0L14.37 189.3c-19.16 19.16-19.16 50.23 0 69.39L189.3 433.63c19.16 19.16 50.23 19.16 69.39 0L433.63 258.7c19.16-19.17 19.16-50.24 0-69.4zM96 248c-13.25 0-24-10.75-24-24 0-13.26 10.75-24 24-24s24 10.74 24 24c0 13.25-10.75 24-24 24zm128 128c-13.25 0-24-10.75-24-24 0-13.26 10.75-24 24-24s24 10.74 24 24c0 13.25-10.75 24-24 24zm0-128c-13.25 0-24-10.75-24-24 0-13.26 10.75-24 24-24s24 10.74 24 24c0 13.25-10.75 24-24 24zm0-128c-13.25 0-24-10.75-24-24 0-13.26 10.75-24 24-24s24 10.74 24 24c0 13.25-10.75 24-24 24zm128 128c-13.25 0-24-10.75-24-24 0-13.26 10.75-24 24-24s24 10.74 24 24c0 13.25-10.75 24-24 24z"></path>
  </symbol>
  <symbol id="solid-dragon" viewBox="0 0 640 512">
    <path d="M18.32 255.78L192 223.96l-91.28 68.69c-10.08 10.08-2.94 27.31 11.31 27.31h222.7c-9.44-26.4-14.73-54.47-14.73-83.38v-42.27l-119.73-87.6c-23.82-15.88-55.29-14.01-77.06 4.59L5.81 227.64c-12.38 10.33-3.45 30.42 12.51 28.14zm556.87 34.1l-100.66-50.31A47.992 47.992 0 0 1 448 196.65v-36.69h64l28.09 22.63c6 6 14.14 9.37 22.63 9.37h30.97a32 32 0 0 0 28.62-17.69l14.31-28.62a32.005 32.005 0 0 0-3.02-33.51l-74.53-99.38C553.02 4.7 543.54 0 533.47 0H296.02c-7.13 0-10.7 8.57-5.66 13.61L352 63.96 292.42 88.8c-5.9 2.95-5.9 11.36 0 14.31L352 127.96v108.62c0 72.08 36.03 139.39 96 179.38-195.59 6.81-344.56 41.01-434.1 60.91C5.78 478.67 0 485.88 0 494.2 0 504 7.95 512 17.76 512h499.08c63.29.01 119.61-47.56 122.99-110.76 2.52-47.28-22.73-90.4-64.64-111.36zM489.18 66.25l45.65 11.41c-2.75 10.91-12.47 18.89-24.13 18.26-12.96-.71-25.85-12.53-21.52-29.67z"></path>
  </symbol>
  <symbol id="solid-gamepad-alt" viewBox="0 0 640 512">
    <path d="M638.59 368.22l-33.37-211.59c-8.86-50.26-48.4-90.77-100.66-103.13h-.07a803.19 803.19 0 0 0-369 0C83.17 65.86 43.64 106.36 34.78 156.63L1.41 368.22C-8.9 426.73 38.8 480 101.51 480c49.67 0 93.77-30.07 109.48-74.64l7.52-21.36h203l7.49 21.36C444.72 449.93 488.82 480 538.49 480c62.71 0 110.41-53.27 100.1-111.78zM280 236a12 12 0 0 1-12 12h-52v52a12 12 0 0 1-12 12h-24a12 12 0 0 1-12-12v-52h-52a12 12 0 0 1-12-12v-24a12 12 0 0 1 12-12h52v-52a12 12 0 0 1 12-12h24a12 12 0 0 1 12 12v52h52a12 12 0 0 1 12 12zm152 76a40 40 0 1 1 40-40 40 40 0 0 1-40 40zm64-96a40 40 0 1 1 40-40 40 40 0 0 1-40 40z"></path>
  </symbol>
  <symbol id="solid-ghost" viewBox="0 0 384 512">
    <path d="M186.1.09C81.01 3.24 0 94.92 0 200.05v263.92c0 14.26 17.23 21.39 27.31 11.31l24.92-18.53c6.66-4.95 16-3.99 21.51 2.21l42.95 48.35c6.25 6.25 16.38 6.25 22.63 0l40.72-45.85c6.37-7.17 17.56-7.17 23.92 0l40.72 45.85c6.25 6.25 16.38 6.25 22.63 0l42.95-48.35c5.51-6.2 14.85-7.17 21.51-2.21l24.92 18.53c10.08 10.08 27.31 2.94 27.31-11.31V192C384 84 294.83-3.17 186.1.09zM128 224c-17.67 0-32-14.33-32-32s14.33-32 32-32 32 14.33 32 32-14.33 32-32 32zm128 0c-17.67 0-32-14.33-32-32s14.33-32 32-32 32 14.33 32 32-14.33 32-32 32z"></path>
  </symbol>
  <symbol id="solid-gifts" viewBox="0 0 640 512">
    <path d="M240.6 194.1c1.9-30.8 17.3-61.2 44-79.8C279.4 103.5 268.7 96 256 96h-29.4l30.7-22c7.2-5.1 8.9-15.1 3.7-22.3l-9.3-13c-5.1-7.2-15.1-8.9-22.3-3.7l-32 22.9 11.5-30.6c3.1-8.3-1.1-17.5-9.4-20.6l-15-5.6c-8.3-3.1-17.5 1.1-20.6 9.4l-19.9 53-19.9-53.1C121 2.1 111.8-2.1 103.5 1l-15 5.6C80.2 9.7 76 19 79.2 27.2l11.5 30.6L58.6 35c-7.2-5.1-17.2-3.5-22.3 3.7l-9.3 13c-5.1 7.2-3.5 17.2 3.7 22.3l30.7 22H32c-17.7 0-32 14.3-32 32v352c0 17.7 14.3 32 32 32h168.9c-5.5-9.5-8.9-20.3-8.9-32V256c0-29.9 20.8-55 48.6-61.9zM224 480c0 17.7 14.3 32 32 32h160V384H224v96zm224 32h160c17.7 0 32-14.3 32-32v-96H448v128zm160-288h-20.4c2.6-7.6 4.4-15.5 4.4-23.8 0-35.5-27-72.2-72.1-72.2-48.1 0-75.9 47.7-87.9 75.3-12.1-27.6-39.9-75.3-87.9-75.3-45.1 0-72.1 36.7-72.1 72.2 0 8.3 1.7 16.2 4.4 23.8H256c-17.7 0-32 14.3-32 32v96h192V224h15.3l.7-.2.7.2H448v128h192v-96c0-17.7-14.3-32-32-32zm-272 0c-2.7-1.4-5.1-3-7.2-4.8-7.3-6.4-8.8-13.8-8.8-19 0-9.7 6.4-24.2 24.1-24.2 18.7 0 35.6 27.4 44.5 48H336zm199.2-4.8c-2.1 1.8-4.5 3.4-7.2 4.8h-52.6c8.8-20.3 25.8-48 44.5-48 17.7 0 24.1 14.5 24.1 24.2 0 5.2-1.5 12.6-8.8 19z"></path>
  </symbol>
  <symbol id="solid-joystick" viewBox="0 0 448 512">
    <path d="M416 352H128v-16a16 16 0 0 0-16-16H80a16 16 0 0 0-16 16v16H32a32 32 0 0 0-32 32v96a32 32 0 0 0 32 32h384a32 32 0 0 0 32-32v-96a32 32 0 0 0-32-32zM192 218.8V320h64V218.8c46.15-13.8 80-56.14 80-106.8a112 112 0 0 0-224 0c0 50.66 33.85 93 80 106.8zM200 48a24 24 0 1 1-24 24 24 24 0 0 1 24-24z"></path>
  </symbol>
  <symbol id="solid-puzzle-piece" viewBox="0 0 576 512">
    <path d="M519.442 288.651c-41.519 0-59.5 31.593-82.058 31.593C377.409 320.244 432 144 432 144s-196.288 80-196.288-3.297c0-35.827 36.288-46.25 36.288-85.985C272 19.216 243.885 0 210.539 0c-34.654 0-66.366 18.891-66.366 56.346 0 41.364 31.711 59.277 31.711 81.75C175.885 207.719 0 166.758 0 166.758v333.237s178.635 41.047 178.635-28.662c0-22.473-40-40.107-40-81.471 0-37.456 29.25-56.346 63.577-56.346 33.673 0 61.788 19.216 61.788 54.717 0 39.735-36.288 50.158-36.288 85.985 0 60.803 129.675 25.73 181.23 25.73 0 0-34.725-120.101 25.827-120.101 35.962 0 46.423 36.152 86.308 36.152C556.712 416 576 387.99 576 354.443c0-34.199-18.962-65.792-56.558-65.792z"></path>
  </symbol>
  <symbol id="solid-running" viewBox="0 0 416 512">
    <path d="M272 96c26.51 0 48-21.49 48-48S298.51 0 272 0s-48 21.49-48 48 21.49 48 48 48zM113.69 317.47l-14.8 34.52H32c-17.67 0-32 14.33-32 32s14.33 32 32 32h77.45c19.25 0 36.58-11.44 44.11-29.09l8.79-20.52-10.67-6.3c-17.32-10.23-30.06-25.37-37.99-42.61zM384 223.99h-44.03l-26.06-53.25c-12.5-25.55-35.45-44.23-61.78-50.94l-71.08-21.14c-28.3-6.8-57.77-.55-80.84 17.14l-39.67 30.41c-14.03 10.75-16.69 30.83-5.92 44.86s30.84 16.66 44.86 5.92l39.69-30.41c7.67-5.89 17.44-8 25.27-6.14l14.7 4.37-37.46 87.39c-12.62 29.48-1.31 64.01 26.3 80.31l84.98 50.17-27.47 87.73c-5.28 16.86 4.11 34.81 20.97 40.09 3.19 1 6.41 1.48 9.58 1.48 13.61 0 26.23-8.77 30.52-22.45l31.64-101.06c5.91-20.77-2.89-43.08-21.64-54.39l-61.24-36.14 31.31-78.28 20.27 41.43c8 16.34 24.92 26.89 43.11 26.89H384c17.67 0 32-14.33 32-32s-14.33-31.99-32-31.99z"></path>
  </symbol>
  <symbol id="solid-sign-in" viewBox="0 0 512 512">
    <path d="M137.2 110.3l21.9-21.9c9.3-9.3 24.5-9.4 33.9-.1L344.9 239c9.5 9.4 9.5 24.7 0 34.1L193 423.7c-9.4 9.3-24.5 9.3-33.9-.1l-21.9-21.9c-9.7-9.7-9.3-25.4.8-34.7l77.6-71.1H24c-13.3 0-24-10.7-24-24v-32c0-13.3 10.7-24 24-24h191.5l-77.6-71.1c-10-9.1-10.4-24.9-.7-34.5zM512 352V160c0-53-43-96-96-96h-84c-6.6 0-12 5.4-12 12v40c0 6.6 5.4 12 12 12h84c17.7 0 32 14.3 32 32v192c0 17.7-14.3 32-32 32h-84c-6.6 0-12 5.4-12 12v40c0 6.6 5.4 12 12 12h84c53 0 96-43 96-96z"></path>
  </symbol>
  <symbol id="solid-sign-in-alt" viewBox="0 0 512 512">
    <path d="M416 448h-84c-6.6 0-12-5.4-12-12v-40c0-6.6 5.4-12 12-12h84c17.7 0 32-14.3 32-32V160c0-17.7-14.3-32-32-32h-84c-6.6 0-12-5.4-12-12V76c0-6.6 5.4-12 12-12h84c53 0 96 43 96 96v192c0 53-43 96-96 96zm-47-201L201 79c-15-15-41-4.5-41 17v96H24c-13.3 0-24 10.7-24 24v96c0 13.3 10.7 24 24 24h136v96c0 21.5 26 32 41 17l168-168c9.3-9.4 9.3-24.6 0-34z"></path>
  </symbol>
  <symbol id="solid-sign-out" viewBox="0 0 512 512">
    <path d="M180 448H96c-53 0-96-43-96-96V160c0-53 43-96 96-96h84c6.6 0 12 5.4 12 12v40c0 6.6-5.4 12-12 12H96c-17.7 0-32 14.3-32 32v192c0 17.7 14.3 32 32 32h84c6.6 0 12 5.4 12 12v40c0 6.6-5.4 12-12 12zm117.9-303.1l77.6 71.1H184c-13.3 0-24 10.7-24 24v32c0 13.3 10.7 24 24 24h191.5l-77.6 71.1c-10.1 9.2-10.4 25-.8 34.7l21.9 21.9c9.3 9.3 24.5 9.4 33.9.1l152-150.8c9.5-9.4 9.5-24.7 0-34.1L353 88.3c-9.4-9.3-24.5-9.3-33.9.1l-21.9 21.9c-9.7 9.6-9.3 25.4.7 34.6z"></path>
  </symbol>
  <symbol id="solid-sitemap" viewBox="0 0 640 512">
    <path d="M128 352H32c-17.67 0-32 14.33-32 32v96c0 17.67 14.33 32 32 32h96c17.67 0 32-14.33 32-32v-96c0-17.67-14.33-32-32-32zm-24-80h192v48h48v-48h192v48h48v-57.59c0-21.17-17.23-38.41-38.41-38.41H344v-64h40c17.67 0 32-14.33 32-32V32c0-17.67-14.33-32-32-32H256c-17.67 0-32 14.33-32 32v96c0 17.67 14.33 32 32 32h40v64H94.41C73.23 224 56 241.23 56 262.41V320h48v-48zm264 80h-96c-17.67 0-32 14.33-32 32v96c0 17.67 14.33 32 32 32h96c17.67 0 32-14.33 32-32v-96c0-17.67-14.33-32-32-32zm240 0h-96c-17.67 0-32 14.33-32 32v96c0 17.67 14.33 32 32 32h96c17.67 0 32-14.33 32-32v-96c0-17.67-14.33-32-32-32z"></path>
  </symbol>
  <symbol id="solid-sparkles" viewBox="0 0 512 512">
    <path d="M324.42 103.15L384 128l24.84 59.58a8 8 0 0 0 14.32 0L448 128l59.58-24.85a8 8 0 0 0 0-14.31L448 64 423.16 4.42a8 8 0 0 0-14.32 0L384 64l-59.58 24.84a8 8 0 0 0 0 14.31zm183.16 305.69L448 384l-24.84-59.58a8 8 0 0 0-14.32 0L384 384l-59.58 24.84a8 8 0 0 0 0 14.32L384 448l24.84 59.58a8 8 0 0 0 14.32 0L448 448l59.58-24.84a8 8 0 0 0 0-14.32zM384 255.64a16.06 16.06 0 0 0-8.84-14.33l-112.57-56.39-56.28-112.77c-5.44-10.87-23.19-10.87-28.62 0l-56.28 112.77L8.84 241.31a16 16 0 0 0 0 28.67l112.57 56.39 56.28 112.77a16 16 0 0 0 28.62 0l56.28-112.77L375.16 270a16.07 16.07 0 0 0 8.84-14.36z"></path>
  </symbol>
  <symbol id="solid-trophy" viewBox="0 0 576 512">
    <path d="M552 64H448V24c0-13.3-10.7-24-24-24H152c-13.3 0-24 10.7-24 24v40H24C10.7 64 0 74.7 0 88v56c0 35.7 22.5 72.4 61.9 100.7 31.5 22.7 69.8 37.1 110 41.7C203.3 338.5 240 360 240 360v72h-48c-35.3 0-64 20.7-64 56v12c0 6.6 5.4 12 12 12h296c6.6 0 12-5.4 12-12v-12c0-35.3-28.7-56-64-56h-48v-72s36.7-21.5 68.1-73.6c40.3-4.6 78.6-19 110-41.7 39.3-28.3 61.9-65 61.9-100.7V88c0-13.3-10.7-24-24-24zM99.3 192.8C74.9 175.2 64 155.6 64 144v-16h64.2c1 32.6 5.8 61.2 12.8 86.2-15.1-5.2-29.2-12.4-41.7-21.4zM512 144c0 16.1-17.7 36.1-35.3 48.8-12.5 9-26.7 16.2-41.8 21.4 7-25 11.8-53.6 12.8-86.2H512v16z"></path>
  </symbol>


  <!-- REGULAR -->
  <symbol id="regular-sync-alt" viewBox="0 0 512 512">
    <path d="M483.515 28.485L431.35 80.65C386.475 35.767 324.485 8 256 8 123.228 8 14.824 112.338 8.31 243.493 7.971 250.311 13.475 256 20.301 256h28.045c6.353 0 11.613-4.952 11.973-11.294C66.161 141.649 151.453 60 256 60c54.163 0 103.157 21.923 138.614 57.386l-54.128 54.129c-7.56 7.56-2.206 20.485 8.485 20.485H492c6.627 0 12-5.373 12-12V36.971c0-10.691-12.926-16.045-20.485-8.486zM491.699 256h-28.045c-6.353 0-11.613 4.952-11.973 11.294C445.839 370.351 360.547 452 256 452c-54.163 0-103.157-21.923-138.614-57.386l54.128-54.129c7.56-7.56 2.206-20.485-8.485-20.485H20c-6.627 0-12 5.373-12 12v143.029c0 10.691 12.926 16.045 20.485 8.485L80.65 431.35C125.525 476.233 187.516 504 256 504c132.773 0 241.176-104.338 247.69-235.493.339-6.818-5.165-12.507-11.991-12.507z"></path>
  </symbol>


  <!-- LIGHT -->
  <symbol id="light-alien-monster" viewBox="0 0 576 512">
    <path d="M192,320h32V224H192Zm160,0h32V224H352ZM544,112H512a32.03165,32.03165,0,0,0-32,32v16H416V128h32a32.03165,32.03165,0,0,0,32-32V64a32.03165,32.03165,0,0,0-32-32H416a32.03165,32.03165,0,0,0-32,32H352a32.03165,32.03165,0,0,0-32,32v32H256V96a32.03165,32.03165,0,0,0-32-32H192a32.03165,32.03165,0,0,0-32-32H128A32.03165,32.03165,0,0,0,96,64V96a32.03165,32.03165,0,0,0,32,32h32v32H96V144a32.03165,32.03165,0,0,0-32-32H32A32.03165,32.03165,0,0,0,0,144V288a32.03165,32.03165,0,0,0,32,32H64v32a32.03165,32.03165,0,0,0,32,32h32v64a32.03165,32.03165,0,0,0,32,32h80a32.03165,32.03165,0,0,0,32-32V416a32.03165,32.03165,0,0,0-32-32h96a32.03165,32.03165,0,0,0-32,32v32a32.03165,32.03165,0,0,0,32,32h80a32.03165,32.03165,0,0,0,32-32V384h32a32.03165,32.03165,0,0,0,32-32V320h32a32.03165,32.03165,0,0,0,32-32V144A32.03165,32.03165,0,0,0,544,112ZM416,64h32V96H416ZM128,96V64h32V96ZM240,448H160V384h32v32h48Zm176,0H336V416h48V384h32ZM544,288H480v64H96V288H32V144H64V256H96V192h96V96h32v64H352V96h32v96h96v64h32V144h32Z"></path>
  </symbol>
  <symbol id="light-chart-bar" viewBox="0 0 512 512">
    <path d="M424 352h16c4.4 0 8-3.6 8-8V104c0-4.4-3.6-8-8-8h-16c-4.4 0-8 3.6-8 8v240c0 4.4 3.6 8 8 8zm-96 0h16c4.4 0 8-3.6 8-8V200c0-4.4-3.6-8-8-8h-16c-4.4 0-8 3.6-8 8v144c0 4.4 3.6 8 8 8zm-192 0h16c4.4 0 8-3.6 8-8v-80c0-4.4-3.6-8-8-8h-16c-4.4 0-8 3.6-8 8v80c0 4.4 3.6 8 8 8zm96 0h16c4.4 0 8-3.6 8-8V136c0-4.4-3.6-8-8-8h-16c-4.4 0-8 3.6-8 8v208c0 4.4 3.6 8 8 8zm272 64H32V72c0-4.42-3.58-8-8-8H8c-4.42 0-8 3.58-8 8v360c0 8.84 7.16 16 16 16h488c4.42 0 8-3.58 8-8v-16c0-4.42-3.58-8-8-8z"></path>
  </symbol>
  <symbol id="light-chess" viewBox="0 0 512 512">
    <path d="M400 320a16 16 0 0 0-32 0v32h32zm103.16 115.57L480 424v-24a16 16 0 0 0-16-16h-1.1l-2.83-82.21 24.6-20.79A32 32 0 0 0 496 256.54V176a16 16 0 0 0-16-16H288a16 16 0 0 0-16 16v80.6a32 32 0 0 0 11.35 24.4l24.57 20.76L305.1 384H304a16 16 0 0 0-16 16v24l-23.15 11.57a16 16 0 0 0-8.85 14.31 16 16 0 0 0-8.84-14.31L224 424v-24a16 16 0 0 0-16-16h-6.4c-6-30.16-9.6-60.75-9.6-91.47V256h24a8 8 0 0 0 8-8v-16a8 8 0 0 0-8-8h-16.9l31.81-84.78a32 32 0 0 0-30-43.22H144V64h24a8 8 0 0 0 8-8V40a8 8 0 0 0-8-8h-24V8a8 8 0 0 0-8-8h-16a8 8 0 0 0-8 8v24H88a8 8 0 0 0-8 8v16a8 8 0 0 0 8 8h24v32H55.09a32 32 0 0 0-30 43.25L56.91 224H40a8 8 0 0 0-8 8v16a8 8 0 0 0 8 8h24v36.53c0 30.71-3.56 61.31-9.6 91.47H48a16 16 0 0 0-16 16v24L8.84 435.57c-4.25 2.13-6.7 6.19-7.81 10.68-.3 1.24-1 2.33-1 3.64V496a16 16 0 0 0 16 16H240a16 16 0 0 0 16-16 16 16 0 0 0 16 16h224a16 16 0 0 0 16-16v-46.12a16 16 0 0 0-8.84-14.31zM55.09 128h145.85l-36 96H91.09zm113.79 256H87.12A499.15 499.15 0 0 0 96 292.53V256h64v36.53a499.15 499.15 0 0 0 8.88 91.47zM224 480H32v-20.22l32-16V416h128v27.78l32 16zm80-223.4V192h32v32h32v-32h32v32h32v-32h32v64.54l-24.6 20.82-11.84 10 .53 15.5 2.79 81.14h-93.76l2.79-81.1.53-15.52-11.86-10zM480 480H288v-20.22l32-16V416h128v27.78l32 16z"></path>
  </symbol>
  <symbol id="light-code" viewBox="0 0 576 512">
    <path d="M228.5 511.8l-25-7.1c-3.2-.9-5-4.2-4.1-7.4L340.1 4.4c.9-3.2 4.2-5 7.4-4.1l25 7.1c3.2.9 5 4.2 4.1 7.4L235.9 507.6c-.9 3.2-4.3 5.1-7.4 4.2zm-75.6-125.3l18.5-20.9c1.9-2.1 1.6-5.3-.5-7.1L49.9 256l121-102.5c2.1-1.8 2.4-5 .5-7.1l-18.5-20.9c-1.8-2.1-5-2.3-7.1-.4L1.7 252.3c-2.3 2-2.3 5.5 0 7.5L145.8 387c2.1 1.8 5.3 1.6 7.1-.5zm277.3.4l144.1-127.2c2.3-2 2.3-5.5 0-7.5L430.2 125.1c-2.1-1.8-5.2-1.6-7.1.4l-18.5 20.9c-1.9 2.1-1.6 5.3.5 7.1l121 102.5-121 102.5c-2.1 1.8-2.4 5-.5 7.1l18.5 20.9c1.8 2.1 5 2.3 7.1.4z"></path>
  </symbol>
  <symbol id="light-cogs" viewBox="0 0 640 512">
    <path d="M538.6 196.4l-2.5-3.9c-4.1.3-8.1.3-12.2 0l-2.5 4c-5.8 9.2-17.1 13.4-27.5 10.1-13.8-4.3-23-8.8-34.3-18.1-9-7.4-11.2-20.3-5.4-30.4l2.5-4.3c-2.3-3.4-4.3-6.9-6.1-10.6h-9.1c-11.6 0-21.4-8.2-23.6-19.6-2.6-13.7-2.7-24.2.1-38.5 2.1-11.3 12.1-19.5 23.6-19.5h9c1.8-3.7 3.8-7.2 6.1-10.6l-2.6-4.5c-5.8-10-3.6-22.7 5.2-30.3 10.6-9.1 19.7-14.3 33.5-19 10.8-3.7 22.7.7 28.5 10.6l2.6 4.4c4.1-.3 8.1-.3 12.2 0l2.6-4.4c5.8-9.9 17.7-14.3 28.6-10.5 13.3 4.5 22.3 9.6 33.5 19.1 8.8 7.5 10.9 20.2 5.1 30.2l-2.6 4.4c2.3 3.4 4.3 6.9 6.1 10.6h5.1c11.6 0 21.4 8.2 23.6 19.6 2.6 13.7 2.7 24.2-.1 38.5-2.1 11.3-12.1 19.5-23.6 19.5h-5c-1.8 3.7-3.8 7.2-6.1 10.6l2.5 4.3c5.9 10.2 3.5 23.1-5.5 30.5-10.7 8.8-19.9 13.4-34 17.9-10.5 3.3-21.9-.8-27.7-10.1zm12.2-34.5l10.6 18.3c6.7-2.8 12.9-6.4 18.7-10.8l-10.6-18.3 6.4-7.5c4.8-5.7 8.6-12.1 11-19.1l3.3-9.3h21.1c.9-7.1.9-14.4 0-21.5h-21.1l-3.3-9.3c-2.5-7-6.2-13.4-11-19.1l-6.4-7.5L580 39.4c-5.7-4.4-12-8-18.7-10.8l-10.6 18.3-9.7-1.8c-7.3-1.4-14.8-1.4-22.1 0l-9.7 1.8-10.6-18.3C492 31.3 485.7 35 480 39.4l10.6 18.3-6.4 7.5c-4.8 5.7-8.6 12.1-11 19.1l-3.3 9.3h-21.1c-.9 7.1-.9 14.4 0 21.5h21.1l3.3 9.3c2.5 7 6.2 13.4 11 19.1l6.4 7.5-10.6 18.4c5.7 4.4 12 8 18.7 10.8l10.6-18.3 9.7 1.8c7.3 1.4 14.8 1.4 22.1 0l9.7-1.8zM145.3 454.4v-31.6c-12.9-5.5-25.1-12.6-36.4-21.1l-27.5 15.9c-9.8 5.6-22.1 3.7-29.7-4.6-24.2-26.3-38.5-49.5-50.6-88.1-3.4-10.7 1.1-22.3 10.8-28L39.2 281c-1.7-14-1.7-28.1 0-42.1l-27.3-15.8c-9.7-5.6-14.2-17.3-10.8-28 12.1-38.4 26.2-61.6 50.6-88.1 7.6-8.3 20-10.2 29.7-4.6l27.4 15.9c11.3-8.5 23.5-15.5 36.4-21.1V65.6c0-11.3 7.8-21 18.8-23.4 34.7-7.8 62-8.7 101.7 0 11 2.4 18.9 12.2 18.9 23.4v31.6c12.9 5.5 25.1 12.6 36.4 21l27.4-15.8c9.8-5.6 22.2-3.7 29.8 4.6 26.9 29.6 41.5 55.9 52.1 88.5 3.4 10.5-.8 21.9-10.2 27.7l-25 15.8c1.7 14 1.7 28.1 0 42.1l28.1 17.5c8.6 5.4 13 15.6 10.8 25.5-6.9 31.3-33 64.6-55.9 89.2-7.6 8.2-19.9 10-29.6 4.4L321 401.8c-11.3 8.5-23.5 15.5-36.4 21.1v31.6c0 11.2-7.8 21-18.8 23.4-37.5 8.3-64.9 8.2-101.9 0-10.8-2.5-18.6-12.3-18.6-23.5zm32-6.2c24.8 5 50.5 5 75.3 0v-47.7l10.7-3.8c16.8-5.9 32.3-14.9 45.9-26.5l8.6-7.4 41.4 23.9c16.8-19.1 34-41.3 42.1-65.2l-41.4-23.9 2.1-11.1c3.2-17.6 3.2-35.5 0-53.1l-2.1-11.1 41.4-23.9c-8.1-23.9-25.3-46.2-42.1-65.2l-41.4 23.9-8.6-7.4c-13.6-11.7-29-20.6-45.9-26.5l-10.7-3.8V71.8c-24.8-5-50.5-5-75.3 0v47.7l-10.7 3.8c-16.8 5.9-32.3 14.9-45.9 26.5l-8.6 7.4-41.4-23.9A192.19 192.19 0 0 0 33 198.5l41.4 23.9-2.1 11.1c-3.2 17.6-3.2 35.5 0 53.1l2.1 11.1L33 321.6c8.1 23.9 20.9 46.2 37.7 65.2l41.4-23.9 8.6 7.4c13.6 11.7 29 20.6 45.9 26.5l10.7 3.8v47.6zm38.4-105.3c-45.7 0-82.9-37.2-82.9-82.9s37.2-82.9 82.9-82.9 82.9 37.2 82.9 82.9-37.2 82.9-82.9 82.9zm0-133.8c-28 0-50.9 22.8-50.9 50.9s22.8 50.9 50.9 50.9c28 0 50.9-22.8 50.9-50.9s-22.8-50.9-50.9-50.9zm322.9 291.7l-2.5-3.9c-4.1.3-8.1.3-12.2 0l-2.5 4c-5.8 9.2-17.1 13.4-27.5 10.1-13.8-4.3-23-8.8-34.3-18.1-9-7.4-11.2-20.3-5.4-30.4l2.5-4.3c-2.3-3.4-4.3-6.9-6.1-10.6h-9.1c-11.6 0-21.4-8.2-23.6-19.6-2.6-13.7-2.7-24.2.1-38.5 2.1-11.3 12.1-19.5 23.6-19.5h9c1.8-3.7 3.8-7.2 6.1-10.6l-2.6-4.5c-5.8-10-3.6-22.7 5.2-30.3 10.6-9.1 19.7-14.3 33.5-19 10.8-3.7 22.7.7 28.5 10.6l2.6 4.4c4.1-.3 8.1-.3 12.2 0l2.6-4.4c5.8-9.9 17.7-14.3 28.6-10.5 13.3 4.5 22.3 9.6 33.5 19.1 8.8 7.5 10.9 20.2 5.1 30.2l-2.6 4.4c2.3 3.4 4.3 6.9 6.1 10.6h5.1c11.6 0 21.4 8.2 23.6 19.6 2.6 13.7 2.7 24.2-.1 38.5-2.1 11.3-12.1 19.5-23.6 19.5h-5c-1.8 3.7-3.8 7.2-6.1 10.6l2.5 4.3c5.9 10.2 3.5 23.1-5.5 30.5-10.7 8.8-19.9 13.4-34 17.9-10.5 3.2-21.9-.9-27.7-10.1zm12.2-34.6l10.6 18.3c6.7-2.8 12.9-6.4 18.7-10.8l-10.6-18.3 6.4-7.5c4.8-5.7 8.6-12.1 11-19.1l3.3-9.3h21.1c.9-7.1.9-14.4 0-21.5h-21.1l-3.3-9.3c-2.5-7-6.2-13.4-11-19.1l-6.4-7.5 10.6-18.3c-5.7-4.4-12-8-18.7-10.8l-10.6 18.3-9.7-1.8c-7.3-1.4-14.8-1.4-22.1 0l-9.7 1.8-10.6-18.3c-6.7 2.8-12.9 6.4-18.7 10.8l10.6 18.3-6.4 7.5c-4.8 5.7-8.6 12.1-11 19.1l-3.3 9.3h-21.1c-.9 7.1-.9 14.4 0 21.5h21.1l3.3 9.3c2.5 7 6.2 13.4 11 19.1l6.4 7.5-10.6 18.3c5.7 4.4 12 8 18.7 10.8l10.6-18.3 9.7 1.8c7.3 1.4 14.8 1.4 22.1 0l9.7-1.8zM560 408c0-17.7-14.3-32-32-32s-32 14.3-32 32 14.3 32 32 32 32-14.3 32-32zm0-304.3c0-17.7-14.3-32-32-32s-32 14.3-32 32 14.3 32 32 32 32-14.4 32-32z"></path>
  </symbol>
  <symbol id="light-dice" viewBox="0 0 640 512">
    <path d="M480 328c-13.25 0-24 10.74-24 24 0 13.25 10.75 24 24 24s24-10.75 24-24c0-13.26-10.75-24-24-24zM224 200c-13.25 0-24 10.74-24 24 0 13.25 10.75 24 24 24s24-10.75 24-24c0-13.26-10.75-24-24-24zm96 0c-13.25 0-24 10.74-24 24 0 13.25 10.75 24 24 24s24-10.75 24-24c0-13.26-10.75-24-24-24zm-192 0c-13.25 0-24 10.74-24 24 0 13.25 10.75 24 24 24s24-10.75 24-24c0-13.26-10.75-24-24-24zm96 96c-13.25 0-24 10.74-24 24 0 13.25 10.75 24 24 24s24-10.75 24-24c0-13.26-10.75-24-24-24zm0-192c-13.25 0-24 10.74-24 24 0 13.25 10.75 24 24 24s24-10.75 24-24c0-13.26-10.75-24-24-24zm352 88H439.38c-2.89-5.17-6.26-10.15-10.65-14.54L270.54 19.28C257.69 6.42 240.84 0 224 0s-33.69 6.42-46.54 19.28L19.28 177.46c-25.7 25.7-25.7 67.38 0 93.08l158.18 158.18C190.31 441.57 207.16 448 224 448s33.69-6.43 46.54-19.28L320 379.26V448c0 35.35 28.65 64 64 64h192c35.35 0 64-28.65 64-64V256c0-35.35-28.65-64-64-64zM247.27 405.45c-6.21 6.21-14.48 9.64-23.27 9.64s-17.05-3.42-23.27-9.64L42.55 247.27c-6.21-6.22-9.64-14.48-9.64-23.27s3.42-17.05 9.64-23.27L200.73 42.55c6.21-6.21 14.48-9.64 23.27-9.64s17.05 3.42 23.27 9.64l158.18 158.18c6.22 6.21 9.64 14.48 9.64 23.27s-3.42 17.05-9.64 23.27L247.27 405.45zM608 448c0 17.64-14.36 32-32 32H384c-17.64 0-32-14.36-32-32V347.26l76.72-76.72C441.57 257.69 448 240.84 448 224h128c17.64 0 32 14.36 32 32v192z"></path>
  </symbol>
  <symbol id="light-dragon" viewBox="0 0 640 512">
    <path d="M481.01 119.95c14.92.86 27.35-9.89 30.88-24.58L453.47 80c-6.49 27.12 15.51 39.26 27.54 39.95zm54.5 131.8c-29.84-16.98-55.61-31.64-55.61-51.38V192h16.96l28.62 22.03c8.34 6.42 18.74 9.97 29.27 9.97h29.18c21.15 0 40.09-14.17 46.02-34.45l7.4-25.16c5.84-19.8 1.88-41.44-10.62-57.91L569.8 31.59C554.78 11.81 530.98 0 506.14 0H297.16c-19.47 0-33.09 24.04-15.4 41.25l37.49 30.25-32.55 13.42c-16.19 7.94-19.14 32.81 1.13 42.64l48.11 19.25v50.89l-190.3-47.88c-19.18-4.86-39.68 2.83-50.99 19.08L3.76 299.12c-5.03 7.91-5 17.72.03 25.59 1.69 2.62 9.54 13.11 24.99 10.91l115.02-21.8-12.07 17.3c-5.03 7.91-5 17.72.03 25.59 6.7 10.45 17.87 11.86 24.15 11.05l202.87-27.39c8.33 16.71 18.17 32.35 31.17 45.73-130.55 8.75-252.39 36.8-364.13 61.33C10.86 450.7.01 464.1.01 479.31c0 18 14.75 32.64 32.87 32.64l474.01.05c42.65 0 83.14-19.77 108.29-52.89 23.4-30.8 30.49-68.73 19.9-106.8-14.5-52.15-61.68-79-99.57-100.56zM41.72 300.62l79.17-113.41c3.75-5.39 10.59-7.86 17-6.36l84.07 21.02L170 276.3 41.72 300.62zm127.18 33.1l86.23-123.48 80.79 20.5c0 47.9 8.68 72.63 10.6 79L168.9 333.72zM506.89 480H32c230.53-56.77 352.62-62.36 400.47-64.02 15.54-.53 21.22-20.83 8.22-29.34-48.96-32.23-72.76-80.92-72.76-148.83V135.98c0-6.55-3.97-12.42-10.06-14.86l-38.15-15.23 36.71-15.09c5.22-2.16 8.94-6.91 9.75-12.5s-1.41-11.2-5.81-14.75L321.15 32h184.99c14.9 0 29.18 7.08 38.18 18.95l56.92 74.91c6.38 8.38 8.4 19.39 5.44 29.48l-7.4 25.19c-2 6.75-8.31 11.47-15.34 11.47h-29.18c-3.56 0-6.9-1.14-9.75-3.33l-32.96-25.36a16.01 16.01 0 0 0-9.75-3.31h-38.4c-8.84 0-16 7.16-16 16v24.38c0 38.34 34.87 58.19 71.8 79.19 36.18 20.59 73.58 41.89 84.57 81.33 19.36 69.86-41.14 119.1-97.38 119.1z"></path>
  </symbol>
  <symbol id="light-gamepad-alt" viewBox="0 0 640 512">
    <path d="M638.59 368.22l-33.37-211.59c-8.86-50.26-48.4-90.77-100.66-103.13h-.07a803.14 803.14 0 0 0-369 0C83.17 65.86 43.64 106.36 34.78 156.63L1.41 368.22C-8.9 426.73 38.8 480 101.51 480c49.67 0 93.77-30.07 109.48-74.64l7.52-21.36h203l7.49 21.36C444.72 449.93 488.82 480 538.49 480c62.71 0 110.41-53.27 100.1-111.78zm-45.11 54.88c-13.28 15.82-33.33 24.9-55 24.9-36.2 0-68.07-21.41-79.29-53.27l-7.53-21.36-7.52-21.37H195.86l-7.53 21.37-7.53 21.36C169.58 426.59 137.71 448 101.51 448c-21.66 0-41.71-9.08-55-24.9A59.93 59.93 0 0 1 33 373.2l33.28-211c6.66-37.7 36.72-68.14 76.53-77.57a771.07 771.07 0 0 1 354.38 0c39.84 9.42 69.87 39.86 76.42 77l33.47 212.15c3.11 17.64-1.72 35.16-13.6 49.32zm-339.3-218.74h-42.54v-42.54a9.86 9.86 0 0 0-9.82-9.82h-19.64a9.86 9.86 0 0 0-9.82 9.82v42.54h-42.54a9.86 9.86 0 0 0-9.82 9.82v19.64a9.86 9.86 0 0 0 9.82 9.82h42.54v42.54a9.86 9.86 0 0 0 9.82 9.82h19.64a9.86 9.86 0 0 0 9.82-9.82v-42.54h42.54a9.86 9.86 0 0 0 9.82-9.82v-19.64a9.86 9.86 0 0 0-9.82-9.82zM416 224a32 32 0 1 0 32 32 32 32 0 0 0-32-32zm64-64a32 32 0 1 0 32 32 32 32 0 0 0-32-32z"></path>
  </symbol>
  <symbol id="light-ghost" viewBox="0 0 384 512">
    <path d="M192 0c-1.96 0-3.93.03-5.91.09C81.01 3.24 0 94.92 0 200.05v263.92C0 473.61 7.89 480 16.12 480c3.93 0 7.94-1.46 11.2-4.72l24.92-18.53c2.86-2.12 6.21-3.16 9.54-3.16 4.43 0 8.82 1.83 11.97 5.38l42.95 48.35c3.12 3.12 7.22 4.69 11.31 4.69s8.19-1.56 11.31-4.69l40.72-45.85c3.18-3.58 7.57-5.38 11.96-5.38s8.78 1.79 11.96 5.38l40.72 45.85c3.12 3.12 7.22 4.69 11.31 4.69s8.19-1.56 11.31-4.69l42.95-48.35a15.994 15.994 0 0 1 21.51-2.22l24.92 18.53c3.26 3.26 7.27 4.72 11.2 4.72 8.22 0 16.12-6.39 16.12-16.03V192C384 85.96 298.04 0 192 0zm160 431.92l-1.13-.84c-8.34-6.21-18.24-9.48-28.64-9.48-13.71 0-26.79 5.88-35.89 16.12L256 471.87l-28.11-31.65c-9.1-10.25-22.18-16.12-35.89-16.12s-26.79 5.88-35.89 16.12L128 471.87l-30.34-34.15a48.017 48.017 0 0 0-35.89-16.12c-10.39 0-20.29 3.28-28.63 9.48l-1.14.84V200.05C32 110 101.56 34.64 187.05 32.08L192 32c88.22 0 160 71.78 160 160v239.92zM128 160c-17.67 0-32 14.33-32 32s14.33 32 32 32 32-14.33 32-32-14.33-32-32-32zm128 0c-17.67 0-32 14.33-32 32s14.33 32 32 32 32-14.33 32-32-14.33-32-32-32z"></path>
  </symbol>
  <symbol id="light-gifts" viewBox="0 0 640 512">
    <path d="M608 224h-27.3c7.1-10 11.3-21.5 11.3-33.9 0-30.5-25.3-62.1-67.8-62.1-42.9 0-74.6 34.8-92.2 62.2-17.7-27.4-49.3-62.2-92.2-62.2-7.2 0-13.6 1.2-19.8 2.8V128c0-17.7-14.3-32-32-32h-70.4l43.1-30.8c3.6-2.6 4.4-7.6 1.9-11.2l-9.3-13c-2.6-3.6-7.6-4.4-11.2-1.9l-53.1 38 22.8-60.7c1.6-4.1-.5-8.7-4.7-10.3l-15-5.6c-4.1-1.6-8.8.5-10.3 4.7L160 63.3 138.2 5.2C136.6 1.1 132-1 127.9.5l-15 5.6c-4.1 1.6-6.2 6.2-4.7 10.3L131 77.1 78 39.2c-3.6-2.6-8.6-1.7-11.2 1.9l-9.3 13c-2.6 3.6-1.7 8.6 1.9 11.2l43 30.7H32c-17.7 0-32 14.3-32 32v352c0 17.7 14.3 32 32 32h576c17.7 0 32-14.3 32-32V256c0-17.7-14.3-32-32-32zm-268.2-64c37.6 0 66 45.9 74.7 64H357c-21.9 0-34.4-6.2-41.1-11.4-7.8-6-11.9-13.8-11.9-22.5 0-14.8 13.4-30.1 35.8-30.1zM224 256v224H32V128h256v22c-10.3 11.4-16 25.8-16 40.1 0 12.4 4.1 23.9 11.3 33.9H256c-17.7 0-32 14.3-32 32zm192 224H256v-96h160v96zm0-128H256v-96h160v96zm108.2-192c22.4 0 35.8 15.3 35.8 30.1 0 8.7-4.1 16.5-11.9 22.5-6.7 5.2-19.2 11.4-41.1 11.4h-57.5c8.7-18.1 37.1-64 74.7-64zM608 480H448v-96h160v96zm0-128H448v-96h160v96z"></path>
  </symbol>
  <symbol id="light-joystick" viewBox="0 0 448 512">
    <path d="M200 64a24 24 0 1 0 24 24 24 24 0 0 0-24-24zm216 288H240V222.39c54.21-7.83 96-54 96-110.39a112 112 0 0 0-224 0c0 56.38 41.79 102.56 96 110.39V352h-80v-16a16 16 0 0 0-16-16H80a16 16 0 0 0-16 16v16H32a32 32 0 0 0-32 32v96a32 32 0 0 0 32 32h384a32 32 0 0 0 32-32v-96a32 32 0 0 0-32-32zM144 112a80 80 0 1 1 80 80 80.09 80.09 0 0 1-80-80zm272 368H32v-96h384z"></path>
  </symbol>
  <symbol id="light-puzzle-piece" viewBox="0 0 576 512">
    <path d="M506.584 256c-52.307 0-72.012 46.513-87.263 27.506-20.125-25.082-2.028-107.233 3.475-131.942-34.229 6.371-137.243 24.274-163.836 2.178-16.619-13.81 31.313-43.496 31.313-86.443C290.272 26.025 256.447 0 214.842 0c-43.559 0-84.792 25.609-84.792 68.824 0 53.02 45.898 71.605 24.351 88.606C125.985 179.846 35.346 160.524 0 152.041v345.313c33.315 8.012 70.681 14.649 106.163 14.646 42.28 0 85.837-11.839 85.837-54.125 0-29.344-32-40.832-32-73.875 0-24.437 22.534-32 46.978-32C245.675 352 256 372.114 256 384c0 28.783-34.272 36.348-34.272 76.58 0 13.748 5.013 25.445 14.498 33.828 35.153 31.069 106.717 6.319 187.085 6.285-.958-3.426-26.807-86.724-7.702-111.907 16.715-22.023 48.578 29.106 92.52 29.106C550.227 417.893 576 377.616 576 336c0-42.835-26.227-80-69.416-80zm1.544 129.893c-30.002 0-41.364-33.893-81.513-33.893-53.566 0-54.841 64.979-44.272 117.816-36.396 3.424-107.025 16.434-124.926.614C237.293 452.645 288 428.279 288 384c0-37.683-33.317-64-81.022-64-74.981 0-102.885 59.829-56.167 122.037 4.726 6.293 9.189 12.237 9.189 15.838 0 33.69-94.005 20.629-128 13.925V191.971c63.255 11.657 160 18.136 160-46.505 0-28.567-29.95-42.982-29.95-76.642C162.05 44.146 190.265 32 214.842 32c20.035 0 43.43 9.244 43.43 35.298 0 29.426-34.272 40.752-34.272 80.61 0 57.828 100.845 50.931 158.22 43.093C374.142 245.294 373.959 320 429.086 320c29.143 0 43.674-32 77.498-32C531.543 288 544 311.301 544 336c0 34.413-20.977 49.893-35.872 49.893z"></path>
  </symbol>
  <symbol id="light-running" viewBox="0 0 448 512">
    <path d="M396 216h-14.53l-9.04-27.12c-8.11-24.31-24.18-44-44.5-58.04C347 117.91 360 96.73 360 72c0-39.7-32.3-72-72-72s-72 32.3-72 72c0 8.34 1.56 16.28 4.2 23.72-8.62-1.98-17.37-3.22-26.13-3.22-20.55 0-40.8 5.53-58.64 16l-46.19 24.07C64.7 147.31 56.7 179.3 71.4 203.88c9.39 15.62 26.48 25.27 44.63 25.27 8.98 0 17.82-2.33 25.65-6.76l18.95-9.85L101.75 344H52c-28.67 0-52 23.33-52 52s23.33 52 52 52h62.91c33.65 0 63.95-19.99 77.2-50.92l19.32-39.74 43.7 19.63-19.64 68.74c-7.87 27.58 8.15 56.42 35.71 64.29 4.8 1.34 9.55 2 14.31 2 23.07 0 43.62-15.5 49.98-37.69l24.4-85.4c7.11-24.86 2.02-50.92-12.01-71.12 6.2 1.45 12.63 2.21 19.2 2.21H396c28.67 0 52-23.33 52-52s-23.33-52-52-52zM288 32c22.09 0 40 17.91 40 40s-17.91 40-40 40-40-17.91-40-40 17.91-40 40-40zM162.69 384.48A51.915 51.915 0 0 1 114.91 416H52c-11.05 0-20-8.95-20-20s8.95-20 20-20h62.91c4.8 0 9.12-2.86 11.03-7.28l26.72-56.88c6.9 12.72 17.07 23.57 29.98 31.43l-19.95 41.21zM396 288h-28.94a51.94 51.94 0 0 1-49.33-35.55l-13.59-40.8c-2.83-8.46-8.21-15.43-15-20.67l-41.47 103.69 52.78 23.72c23.41 10.55 35.72 37.09 28.67 61.73l-24.39 85.38c-2.52 8.78-10.52 14.5-19.22 14.5-1.83 0-3.67-.25-5.52-.77-10.61-3.03-16.77-14.11-13.73-24.73l24.39-85.38c1.64-5.69-1.22-11.81-6.62-14.25 0 0-85.82-39.04-88.71-41.16-17.8-13.09-25.42-36.48-18.51-57.88l37.75-87.57s-16.9-3.77-20.5-3.77c-7.88 0-15.59 2.14-22.5 6.31l-45.25 23.52a20.137 20.137 0 0 1-10.29 2.84c-6.8 0-13.41-3.46-17.16-9.7-5.67-9.48-2.61-21.77 6.86-27.45l45.26-23.52c13.24-7.93 28.06-11.99 43.1-11.99 6.83 0 13.72.84 20.51 2.53l68.19 17.05c28 6.98 50.17 27.52 59.31 54.92l13.59 40.8c1.64 4.91 6.22 8.2 11.39 8.2H396c11.05 0 20 8.95 20 20s-8.95 20-20 20z"></path>
  </symbol>
  <symbol id="light-sitemap" viewBox="0 0 640 512">
    <path d="M608 352h-32v-97.59c0-16.77-13.62-30.41-30.41-30.41H336v-64h48c17.67 0 32-14.33 32-32V32c0-17.67-14.33-32-32-32H256c-17.67 0-32 14.33-32 32v96c0 17.67 14.33 32 32 32h48v64H94.41C77.62 224 64 237.64 64 254.41V352H32c-17.67 0-32 14.33-32 32v96c0 17.67 14.33 32 32 32h96c17.67 0 32-14.33 32-32v-96c0-17.67-14.33-32-32-32H96v-96h208v96h-32c-17.67 0-32 14.33-32 32v96c0 17.67 14.33 32 32 32h96c17.67 0 32-14.33 32-32v-96c0-17.67-14.33-32-32-32h-32v-96h208v96h-32c-17.67 0-32 14.33-32 32v96c0 17.67 14.33 32 32 32h96c17.67 0 32-14.33 32-32v-96c0-17.67-14.33-32-32-32zm-480 32v96H32v-96h96zm240 0v96h-96v-96h96zM256 128V32h128v96H256zm352 352h-96v-96h96v96z"></path>
  </symbol>
  <symbol id="light-trophy" viewBox="0 0 576 512">
    <path d="M448 64V12c0-6.6-5.4-12-12-12H140c-6.6 0-12 5.4-12 12v52H12C5.4 64 0 69.4 0 76v61.6C0 199.7 68.1 272 160.7 285.7c29.4 60.7 73.7 90.3 111.3 96.9V480h-86c-14.4 0-26 11.7-26 26.1 0 3.3 2.7 5.9 6 5.9h244c3.3 0 6-2.6 6-5.9 0-14.4-11.6-26.1-26-26.1h-86v-97.4c37.7-6.6 81.9-36.2 111.3-96.9C508 272 576 199.6 576 137.6V76c0-6.6-5.4-12-12-12H448zM32 137.6V96h96v24c0 51.8 7 94.9 18.5 130.2C77.9 232.5 32 178 32 137.6zM288 352c-72 0-128-104-128-232V32h256v88c0 128-56 232-128 232zm256-214.4c0 40.4-46 94.9-114.5 112.6C441 214.9 448 171.8 448 120V96h96v41.6z"></path>
  </symbol>
</svg>
