<?xml version="1.0" encoding="UTF-8"?>
<!--
Font Awesome Pro 5.13.0 by @fontawesome - https://fontawesome.com
License - https://fontawesome.com/license (Commercial License)
-->

<!-- How to add new symbols here:
  - Copy paste them from node_modules/@fortawesome/fontawesome-pro/sprites/*.svg
  - These meta sprite files are huge, we only cherry-pick the FA icons we need
  - Reference them via:
    <svg class="myclass">
      <use href="../images/fontawesome-solid-sprite.svg#symbol-id" />
    </svg>
-->
<svg xmlns="http://www.w3.org/2000/svg" style="display: none;">
  <symbol id="sign-in" viewBox="0 0 512 512">
    <path d="M137.2 110.3l21.9-21.9c9.3-9.3 24.5-9.4 33.9-.1L344.9 239c9.5 9.4 9.5 24.7 0 34.1L193 423.7c-9.4 9.3-24.5 9.3-33.9-.1l-21.9-21.9c-9.7-9.7-9.3-25.4.8-34.7l77.6-71.1H24c-13.3 0-24-10.7-24-24v-32c0-13.3 10.7-24 24-24h191.5l-77.6-71.1c-10-9.1-10.4-24.9-.7-34.5zM512 352V160c0-53-43-96-96-96h-84c-6.6 0-12 5.4-12 12v40c0 6.6 5.4 12 12 12h84c17.7 0 32 14.3 32 32v192c0 17.7-14.3 32-32 32h-84c-6.6 0-12 5.4-12 12v40c0 6.6 5.4 12 12 12h84c53 0 96-43 96-96z"></path>
  </symbol>
  <symbol id="sign-in-alt" viewBox="0 0 512 512">
    <path d="M416 448h-84c-6.6 0-12-5.4-12-12v-40c0-6.6 5.4-12 12-12h84c17.7 0 32-14.3 32-32V160c0-17.7-14.3-32-32-32h-84c-6.6 0-12-5.4-12-12V76c0-6.6 5.4-12 12-12h84c53 0 96 43 96 96v192c0 53-43 96-96 96zm-47-201L201 79c-15-15-41-4.5-41 17v96H24c-13.3 0-24 10.7-24 24v96c0 13.3 10.7 24 24 24h136v96c0 21.5 26 32 41 17l168-168c9.3-9.4 9.3-24.6 0-34z"></path>
  </symbol>
  <symbol id="sign-out" viewBox="0 0 512 512">
    <path d="M180 448H96c-53 0-96-43-96-96V160c0-53 43-96 96-96h84c6.6 0 12 5.4 12 12v40c0 6.6-5.4 12-12 12H96c-17.7 0-32 14.3-32 32v192c0 17.7 14.3 32 32 32h84c6.6 0 12 5.4 12 12v40c0 6.6-5.4 12-12 12zm117.9-303.1l77.6 71.1H184c-13.3 0-24 10.7-24 24v32c0 13.3 10.7 24 24 24h191.5l-77.6 71.1c-10.1 9.2-10.4 25-.8 34.7l21.9 21.9c9.3 9.3 24.5 9.4 33.9.1l152-150.8c9.5-9.4 9.5-24.7 0-34.1L353 88.3c-9.4-9.3-24.5-9.3-33.9.1l-21.9 21.9c-9.7 9.6-9.3 25.4.7 34.6z"></path>
  </symbol>
  <symbol id="cog" viewBox="0 0 512 512">
    <path d="M487.4 315.7l-42.6-24.6c4.3-23.2 4.3-47 0-70.2l42.6-24.6c4.9-2.8 7.1-8.6 5.5-14-11.1-35.6-30-67.8-54.7-94.6-3.8-4.1-10-5.1-14.8-2.3L380.8 110c-17.9-15.4-38.5-27.3-60.8-35.1V25.8c0-5.6-3.9-10.5-9.4-11.7-36.7-8.2-74.3-7.8-109.2 0-5.5 1.2-9.4 6.1-9.4 11.7V75c-22.2 7.9-42.8 19.8-60.8 35.1L88.7 85.5c-4.9-2.8-11-1.9-14.8 2.3-24.7 26.7-43.6 58.9-54.7 94.6-1.7 5.4.6 11.2 5.5 14L67.3 221c-4.3 23.2-4.3 47 0 70.2l-42.6 24.6c-4.9 2.8-7.1 8.6-5.5 14 11.1 35.6 30 67.8 54.7 94.6 3.8 4.1 10 5.1 14.8 2.3l42.6-24.6c17.9 15.4 38.5 27.3 60.8 35.1v49.2c0 5.6 3.9 10.5 9.4 11.7 36.7 8.2 74.3 7.8 109.2 0 5.5-1.2 9.4-6.1 9.4-11.7v-49.2c22.2-7.9 42.8-19.8 60.8-35.1l42.6 24.6c4.9 2.8 11 1.9 14.8-2.3 24.7-26.7 43.6-58.9 54.7-94.6 1.5-5.5-.7-11.3-5.6-14.1zM256 336c-44.1 0-80-35.9-80-80s35.9-80 80-80 80 35.9 80 80-35.9 80-80 80z"></path>
  </symbol>
</svg>
