<?xml version="1.0" encoding="UTF-8"?>
<!--
Font Awesome Pro 5.13.0 by @fontawesome - https://fontawesome.com
License - https://fontawesome.com/license (Commercial License)
-->

<!-- How to add new symbols here:
  - Copy paste them from node_modules/@fortawesome/fontawesome-pro/sprites/*.svg
  - These meta sprite files are huge, we only cherry-pick the FA icons we need
  - Reference them via:
    <svg class="myclass">
      <use href="../images/fontawesome-sprite.svg#symbol-id" />
    </svg>
-->
<svg xmlns="http://www.w3.org/2000/svg" style="display: none;">
  <!-- SOLID -->
  <symbol id="solid-cog" viewBox="0 0 512 512">
    <path d="M487.4 315.7l-42.6-24.6c4.3-23.2 4.3-47 0-70.2l42.6-24.6c4.9-2.8 7.1-8.6 5.5-14-11.1-35.6-30-67.8-54.7-94.6-3.8-4.1-10-5.1-14.8-2.3L380.8 110c-17.9-15.4-38.5-27.3-60.8-35.1V25.8c0-5.6-3.9-10.5-9.4-11.7-36.7-8.2-74.3-7.8-109.2 0-5.5 1.2-9.4 6.1-9.4 11.7V75c-22.2 7.9-42.8 19.8-60.8 35.1L88.7 85.5c-4.9-2.8-11-1.9-14.8 2.3-24.7 26.7-43.6 58.9-54.7 94.6-1.7 5.4.6 11.2 5.5 14L67.3 221c-4.3 23.2-4.3 47 0 70.2l-42.6 24.6c-4.9 2.8-7.1 8.6-5.5 14 11.1 35.6 30 67.8 54.7 94.6 3.8 4.1 10 5.1 14.8 2.3l42.6-24.6c17.9 15.4 38.5 27.3 60.8 35.1v49.2c0 5.6 3.9 10.5 9.4 11.7 36.7 8.2 74.3 7.8 109.2 0 5.5-1.2 9.4-6.1 9.4-11.7v-49.2c22.2-7.9 42.8-19.8 60.8-35.1l42.6 24.6c4.9 2.8 11 1.9 14.8-2.3 24.7-26.7 43.6-58.9 54.7-94.6 1.5-5.5-.7-11.3-5.6-14.1zM256 336c-44.1 0-80-35.9-80-80s35.9-80 80-80 80 35.9 80 80-35.9 80-80 80z"></path>
  </symbol>
  <symbol id="solid-sign-in" viewBox="0 0 512 512">
    <path d="M137.2 110.3l21.9-21.9c9.3-9.3 24.5-9.4 33.9-.1L344.9 239c9.5 9.4 9.5 24.7 0 34.1L193 423.7c-9.4 9.3-24.5 9.3-33.9-.1l-21.9-21.9c-9.7-9.7-9.3-25.4.8-34.7l77.6-71.1H24c-13.3 0-24-10.7-24-24v-32c0-13.3 10.7-24 24-24h191.5l-77.6-71.1c-10-9.1-10.4-24.9-.7-34.5zM512 352V160c0-53-43-96-96-96h-84c-6.6 0-12 5.4-12 12v40c0 6.6 5.4 12 12 12h84c17.7 0 32 14.3 32 32v192c0 17.7-14.3 32-32 32h-84c-6.6 0-12 5.4-12 12v40c0 6.6 5.4 12 12 12h84c53 0 96-43 96-96z"></path>
  </symbol>
  <symbol id="solid-sign-in-alt" viewBox="0 0 512 512">
    <path d="M416 448h-84c-6.6 0-12-5.4-12-12v-40c0-6.6 5.4-12 12-12h84c17.7 0 32-14.3 32-32V160c0-17.7-14.3-32-32-32h-84c-6.6 0-12-5.4-12-12V76c0-6.6 5.4-12 12-12h84c53 0 96 43 96 96v192c0 53-43 96-96 96zm-47-201L201 79c-15-15-41-4.5-41 17v96H24c-13.3 0-24 10.7-24 24v96c0 13.3 10.7 24 24 24h136v96c0 21.5 26 32 41 17l168-168c9.3-9.4 9.3-24.6 0-34z"></path>
  </symbol>
  <symbol id="solid-sign-out" viewBox="0 0 512 512">
    <path d="M180 448H96c-53 0-96-43-96-96V160c0-53 43-96 96-96h84c6.6 0 12 5.4 12 12v40c0 6.6-5.4 12-12 12H96c-17.7 0-32 14.3-32 32v192c0 17.7 14.3 32 32 32h84c6.6 0 12 5.4 12 12v40c0 6.6-5.4 12-12 12zm117.9-303.1l77.6 71.1H184c-13.3 0-24 10.7-24 24v32c0 13.3 10.7 24 24 24h191.5l-77.6 71.1c-10.1 9.2-10.4 25-.8 34.7l21.9 21.9c9.3 9.3 24.5 9.4 33.9.1l152-150.8c9.5-9.4 9.5-24.7 0-34.1L353 88.3c-9.4-9.3-24.5-9.3-33.9.1l-21.9 21.9c-9.7 9.6-9.3 25.4.7 34.6z"></path>
  </symbol>


  <!-- REGULAR -->
  <symbol id="regular-external-link-square" viewBox="0 0 448 512">
    <path d="M400 32H48C21.49 32 0 53.49 0 80v352c0 26.51 21.49 48 48 48h352c26.51 0 48-21.49 48-48V80c0-26.51-21.49-48-48-48zm-6 400H54a6 6 0 0 1-6-6V86a6 6 0 0 1 6-6h340a6 6 0 0 1 6 6v340a6 6 0 0 1-6 6zm-54-304l-136 .145c-6.627 0-12 5.373-12 12V167.9c0 6.722 5.522 12.133 12.243 11.998l58.001-2.141L99.515 340.485c-4.686 4.686-4.686 12.284 0 16.971l23.03 23.029c4.686 4.686 12.284 4.686 16.97 0l162.729-162.729-2.141 58.001c-.136 6.721 5.275 12.242 11.998 12.242h27.755c6.628 0 12-5.373 12-12L352 140c0-6.627-5.373-12-12-12z"></path>
  </symbol>
  <symbol id="regular-sync-alt" viewBox="0 0 512 512">
    <path d="M483.515 28.485L431.35 80.65C386.475 35.767 324.485 8 256 8 123.228 8 14.824 112.338 8.31 243.493 7.971 250.311 13.475 256 20.301 256h28.045c6.353 0 11.613-4.952 11.973-11.294C66.161 141.649 151.453 60 256 60c54.163 0 103.157 21.923 138.614 57.386l-54.128 54.129c-7.56 7.56-2.206 20.485 8.485 20.485H492c6.627 0 12-5.373 12-12V36.971c0-10.691-12.926-16.045-20.485-8.486zM491.699 256h-28.045c-6.353 0-11.613 4.952-11.973 11.294C445.839 370.351 360.547 452 256 452c-54.163 0-103.157-21.923-138.614-57.386l54.128-54.129c7.56-7.56 2.206-20.485-8.485-20.485H20c-6.627 0-12 5.373-12 12v143.029c0 10.691 12.926 16.045 20.485 8.485L80.65 431.35C125.525 476.233 187.516 504 256 504c132.773 0 241.176-104.338 247.69-235.493.339-6.818-5.165-12.507-11.991-12.507z"></path>
  </symbol>


  <!-- LIGHT -->
</svg>
