<svg xmlns="http://www.w3.org/2000/svg" xmlns:xlink="http://www.w3.org/1999/xlink">
  <!-- To add a new symbol to this sprite:
   - Create a new symbol markup:
    <symbol id="" class="" viewBox="0 0 36 36">
    </symbol>
   - Paste the content of the svg
   - Paste the viewBox content of the svg in the symbol markup
   - assign an id to symbol
   - assign the unicode equivalent as class name (optional)
   - call this svg via:
    <svg id="logo">
      <use href='images/sprite.svg#mynewid' />
    </svg>
  
  -->
  
  <symbol id="bar_chart" class="1F4CA" viewBox="0 0 36 36">
    <path fill="#CCD6DD" d="M31 2H5C3.343 2 2 3.343 2 5v26c0 1.657 1.343 3 3 3h26c1.657 0 3-1.343 3-3V5c0-1.657-1.343-3-3-3z"/><path fill="#E1E8ED" d="M31 1H5C2.791 1 1 2.791 1 5v26c0 2.209 1.791 4 4 4h26c2.209 0 4-1.791 4-4V5c0-2.209-1.791-4-4-4zm0 2c1.103 0 2 .897 2 2v4h-6V3h4zm-4 16h6v6h-6v-6zm0-2v-6h6v6h-6zM25 3v6h-6V3h6zm-6 8h6v6h-6v-6zm0 8h6v6h-6v-6zM17 3v6h-6V3h6zm-6 8h6v6h-6v-6zm0 8h6v6h-6v-6zM3 5c0-1.103.897-2 2-2h4v6H3V5zm0 6h6v6H3v-6zm0 8h6v6H3v-6zm2 14c-1.103 0-2-.897-2-2v-4h6v6H5zm6 0v-6h6v6h-6zm8 0v-6h6v6h-6zm12 0h-4v-6h6v4c0 1.103-.897 2-2 2z"/><path fill="#5C913B" d="M13 33H7V16c0-1.104.896-2 2-2h2c1.104 0 2 .896 2 2v17z"/><path fill="#3B94D9" d="M29 33h-6V9c0-1.104.896-2 2-2h2c1.104 0 2 .896 2 2v24z"/><path fill="#DD2E44" d="M21 33h-6V23c0-1.104.896-2 2-2h2c1.104 0 2 .896 2 2v10z"/>
  </symbol>

  <symbol id="card_file_box" class="1F5C3" viewBox="0 0 36 36">
    <path fill="#67757F" d="M35 20c0 2.209-1.791 2-4 2H5c-2.209 0-4 .209-4-2L3 8c.125-1.917 1.791-4 4-4h22c2.209 0 3.791 2.208 4 4l2 12z"/><path fill="#CCD6DD" d="M28 13c0 1.104-.896 2-2 2H10c-1.104 0-2-.896-2-2V5c0-1.105.896-2 2-2h16c1.104 0 2 .895 2 2v8z"/><path fill="#E1E8ED" d="M30 17c0 1.104-.896 2-2 2H8c-1.104 0-2-.896-2-2V9c0-1.104.896-2 2-2h20c1.104 0 2 .896 2 2v8z"/><path fill="#F5F8FA" d="M32 21c0 1.104-.896 2-2 2H6c-1.104 0-2-.896-2-2v-8c0-1.104.896-2 2-2h24c1.104 0 2 .896 2 2v8z"/><path fill="#9AAAB4" d="M35 31c0 2.209-1.791 4-4 4H5c-2.209 0-4-1.791-4-4V20c0-2.209 1.791-4 4-4h26c2.209 0 4 1.791 4 4v11z"/><path fill="#67757F" d="M14 12zm0 0z"/><path fill="#FCAB40" d="M22 1h-5c-1.104 0-2 .895-2 2v1h4c1.104 0 2 .896 2 2h1c1.104 0 2-.896 2-2V3c0-1.105-.896-2-2-2z"/><path fill="#5DADEC" d="M18 5h-5c-1.104 0-2 .896-2 2v1h4c1.104 0 2 .896 2 2h1c1.104 0 2-.896 2-2V7c0-1.104-.896-2-2-2z"/><path fill="#E75A70" d="M16 12c0 1.104-.896 2-2 2H9c-1.104 0-2-.896-2-2v-1c0-1.104.896-2 2-2h5c1.104 0 2 .896 2 2v1z"/><path fill="#67757F" d="M25 28c0 1.104-.896 2-2 2H13c-1.104 0-2-.896-2-2v-5c0-1.104.896-2 2-2h10c1.104 0 2 .896 2 2v5zm-11-4z"/><path fill="#E1E8ED" d="M23 27c0 .553-.447 1-1 1h-8c-.552 0-1-.447-1-1v-3c0-.553.448-1 1-1h8c.553 0 1 .447 1 1v3z"/>
  </symbol>

  <symbol id="compass" class="1F9ED" viewBox="0 0 36 36">
    <circle fill="#F4900C" cx="18" cy="18" r="18"/><circle fill="#FFD983" cx="18" cy="18" r="14.5"/><circle fill="#F5F8FA" cx="18" cy="18" r="13"/><path fill="#CCD6DD" d="M18 8l1.531 6.304 5.54-3.375-3.375 5.54L28 18l-6.304 1.531 3.375 5.54-5.54-3.375L18 28l-1.531-6.304-5.54 3.375 3.375-5.54L8 18l6.304-1.531-3.375-5.54 5.54 3.375z"/><path fill="#292F33" d="M17.343 20.748l8.777 5.381-5.379-8.778z"/><path fill="#DD2E44" d="M18.657 15.267L9.879 9.886l5.38 8.779z"/><circle fill="#8899A6" cx="18" cy="18.008" r="3.055"/><circle fill="#F5F8FA" cx="18" cy="18.008" r="1.648"/>
  </symbol>
  
  <symbol id="gear" class="2699" viewBox="0 0 36 36">
    <path fill="#66757F" d="M34 15h-3.362c-.324-1.369-.864-2.651-1.582-3.814l2.379-2.379c.781-.781.781-2.048 0-2.829l-1.414-1.414c-.781-.781-2.047-.781-2.828 0l-2.379 2.379C23.65 6.225 22.369 5.686 21 5.362V2c0-1.104-.896-2-2-2h-2c-1.104 0-2 .896-2 2v3.362c-1.369.324-2.651.864-3.814 1.582L8.808 4.565c-.781-.781-2.048-.781-2.828 0L4.565 5.979c-.781.781-.781 2.048-.001 2.829l2.379 2.379C6.225 12.35 5.686 13.632 5.362 15H2c-1.104 0-2 .896-2 2v2c0 1.104.896 2 2 2h3.362c.324 1.368.864 2.65 1.582 3.813l-2.379 2.379c-.78.78-.78 2.048.001 2.829l1.414 1.414c.78.78 2.047.78 2.828 0l2.379-2.379c1.163.719 2.445 1.258 3.814 1.582V34c0 1.104.896 2 2 2h2c1.104 0 2-.896 2-2v-3.362c1.368-.324 2.65-.864 3.813-1.582l2.379 2.379c.781.781 2.047.781 2.828 0l1.414-1.414c.781-.781.781-2.048 0-2.829l-2.379-2.379c.719-1.163 1.258-2.445 1.582-3.814H34c1.104 0 2-.896 2-2v-2C36 15.896 35.104 15 34 15zM18 26c-4.418 0-8-3.582-8-8s3.582-8 8-8 8 3.582 8 8-3.582 8-8 8z"/>
  </symbol>

  <symbol id="heart" class="2764" viewBox="0 0 36 36">
    <path fill="#DD2E44" d="M35.885 11.833c0-5.45-4.418-9.868-9.867-9.868-3.308 0-6.227 1.633-8.018 4.129-1.791-2.496-4.71-4.129-8.017-4.129-5.45 0-9.868 4.417-9.868 9.868 0 .772.098 1.52.266 2.241C1.751 22.587 11.216 31.568 18 34.034c6.783-2.466 16.249-11.447 17.617-19.959.17-.721.268-1.469.268-2.242z"/>
  </symbol>

  <symbol id="high_voltage_sign" class="26A1" viewBox="0 0 36 36">
    <path fill="#FFAC33" d="M32.938 15.651C32.792 15.26 32.418 15 32 15H19.925L26.89 1.458c.219-.426.106-.947-.271-1.243C26.437.071 26.218 0 26 0c-.233 0-.466.082-.653.243L18 6.588 3.347 19.243c-.316.273-.43.714-.284 1.105S3.582 21 4 21h12.075L9.11 34.542c-.219.426-.106.947.271 1.243.182.144.401.215.619.215.233 0 .466-.082.653-.243L18 29.412l14.653-12.655c.317-.273.43-.714.285-1.106z"/>
  </symbol>

  <symbol id="package" class="1F4E6" viewBox="0 0 36 36">
    <path fill="#662113" d="M4 11v12.375c0 2.042 1.093 2.484 1.093 2.484l11.574 9.099C18.489 36.39 18 33.375 18 33.375V22L4 11z"/><path fill="#C1694F" d="M32 11v12.375c0 2.042-1.063 2.484-1.063 2.484s-9.767 7.667-11.588 9.099C17.526 36.39 18 33.375 18 33.375V22l14-11z"/><path fill="#D99E82" d="M19.289.5c-.753-.61-1.988-.61-2.742 0L4.565 10.029c-.754.61-.754 1.607 0 2.216l12.023 9.646c.754.609 1.989.609 2.743 0l12.104-9.73c.754-.609.754-1.606 0-2.216L19.289.5z"/><path fill="#D99E82" d="M18 35.75c-.552 0-1-.482-1-1.078V21.745c0-.596.448-1.078 1-1.078.553 0 1 .482 1 1.078v12.927c0 .596-.447 1.078-1 1.078z"/><path fill="#99AAB5" d="M28 18.836c0 1.104.104 1.646-1 2.442l-2.469 1.878c-1.104.797-1.531.113-1.531-.992v-2.961c0-.193-.026-.4-.278-.608C20.144 16.47 10.134 8.519 8.31 7.051l4.625-3.678c1.266.926 10.753 8.252 14.722 11.377.197.156.343.328.343.516v3.57z"/><path fill="#CCD6DD" d="M27.656 14.75C23.688 11.625 14.201 4.299 12.935 3.373l-1.721 1.368-2.904 2.31c1.825 1.468 11.834 9.419 14.412 11.544.151.125.217.25.248.371L27.903 15c-.06-.087-.146-.171-.247-.25z"/><path fill="#CCD6DD" d="M28 18.836v-3.57c0-.188-.146-.359-.344-.516-3.968-3.125-13.455-10.451-14.721-11.377l-2.073 1.649c3.393 2.669 12.481 9.681 14.86 11.573.256.204.278.415.278.608v4.836l1-.761c1.104-.797 1-1.338 1-2.442z"/><path fill="#E1E8ED" d="M27.656 14.75C23.688 11.625 14.201 4.299 12.935 3.373l-2.073 1.649c3.393 2.669 12.481 9.681 14.86 11.573.037.029.06.059.087.088L27.903 15c-.06-.087-.146-.171-.247-.25z"/>
  </symbol>

  <symbol id="party_popper" class="1F389" viewBox="0 0 36 36">
    <path fill="#DD2E44" d="M11.626 7.488c-.112.112-.197.247-.268.395l-.008-.008L.134 33.141l.011.011c-.208.403.14 1.223.853 1.937.713.713 1.533 1.061 1.936.853l.01.01L28.21 24.735l-.008-.009c.147-.07.282-.155.395-.269 1.562-1.562-.971-6.627-5.656-11.313-4.687-4.686-9.752-7.218-11.315-5.656z"/><path fill="#EA596E" d="M13 12L.416 32.506l-.282.635.011.011c-.208.403.14 1.223.853 1.937.232.232.473.408.709.557L17 17l-4-5z"/><path fill="#A0041E" d="M23.012 13.066c4.67 4.672 7.263 9.652 5.789 11.124-1.473 1.474-6.453-1.118-11.126-5.788-4.671-4.672-7.263-9.654-5.79-11.127 1.474-1.473 6.454 1.119 11.127 5.791z"/><path fill="#AA8DD8" d="M18.59 13.609c-.199.161-.459.245-.734.215-.868-.094-1.598-.396-2.109-.873-.541-.505-.808-1.183-.735-1.862.128-1.192 1.324-2.286 3.363-2.066.793.085 1.147-.17 1.159-.292.014-.121-.277-.446-1.07-.532-.868-.094-1.598-.396-2.11-.873-.541-.505-.809-1.183-.735-1.862.13-1.192 1.325-2.286 3.362-2.065.578.062.883-.057 1.012-.134.103-.063.144-.123.148-.158.012-.121-.275-.446-1.07-.532-.549-.06-.947-.552-.886-1.102.059-.549.55-.946 1.101-.886 2.037.219 2.973 1.542 2.844 2.735-.13 1.194-1.325 2.286-3.364 2.067-.578-.063-.88.057-1.01.134-.103.062-.145.123-.149.157-.013.122.276.446 1.071.532 2.037.22 2.973 1.542 2.844 2.735-.129 1.192-1.324 2.286-3.362 2.065-.578-.062-.882.058-1.012.134-.104.064-.144.124-.148.158-.013.121.276.446 1.07.532.548.06.947.553.886 1.102-.028.274-.167.511-.366.671z"/><path fill="#77B255" d="M30.661 22.857c1.973-.557 3.334.323 3.658 1.478.324 1.154-.378 2.615-2.35 3.17-.77.216-1.001.584-.97.701.034.118.425.312 1.193.095 1.972-.555 3.333.325 3.657 1.479.326 1.155-.378 2.614-2.351 3.17-.769.216-1.001.585-.967.702.033.117.423.311 1.192.095.53-.149 1.084.16 1.233.691.148.532-.161 1.084-.693 1.234-1.971.555-3.333-.323-3.659-1.479-.324-1.154.379-2.613 2.353-3.169.77-.217 1.001-.584.967-.702-.032-.117-.422-.312-1.19-.096-1.974.556-3.334-.322-3.659-1.479-.325-1.154.378-2.613 2.351-3.17.768-.215.999-.585.967-.701-.034-.118-.423-.312-1.192-.096-.532.15-1.083-.16-1.233-.691-.149-.53.161-1.082.693-1.232z"/><path fill="#AA8DD8" d="M23.001 20.16c-.294 0-.584-.129-.782-.375-.345-.432-.274-1.061.156-1.406.218-.175 5.418-4.259 12.767-3.208.547.078.927.584.849 1.131-.078.546-.58.93-1.132.848-6.493-.922-11.187 2.754-11.233 2.791-.186.148-.406.219-.625.219z"/><path fill="#77B255" d="M5.754 16c-.095 0-.192-.014-.288-.042-.529-.159-.829-.716-.67-1.245 1.133-3.773 2.16-9.794.898-11.364-.141-.178-.354-.353-.842-.316-.938.072-.849 2.051-.848 2.071.042.551-.372 1.031-.922 1.072-.559.034-1.031-.372-1.072-.923-.103-1.379.326-4.035 2.692-4.214 1.056-.08 1.933.287 2.552 1.057 2.371 2.951-.036 11.506-.542 13.192-.13.433-.528.712-.958.712z"/><circle fill="#5C913B" cx="25.5" cy="9.5" r="1.5"/><circle fill="#9266CC" cx="2" cy="18" r="2"/><circle fill="#5C913B" cx="32.5" cy="19.5" r="1.5"/><circle fill="#5C913B" cx="23.5" cy="31.5" r="1.5"/><circle fill="#FFCC4D" cx="28" cy="4" r="2"/><circle fill="#FFCC4D" cx="32.5" cy="8.5" r="1.5"/><circle fill="#FFCC4D" cx="29.5" cy="12.5" r="1.5"/><circle fill="#FFCC4D" cx="7.5" cy="23.5" r="1.5"/>
  </symbol>

  <symbol id="rocket" class="1F680" viewBox="0 0 36 36">
    <path fill="#A0041E" d="M1 17l8-7 16 1 1 16-7 8s.001-5.999-6-12-12-6-12-6z"/><path fill="#FFAC33" d="M.973 35s-.036-7.979 2.985-11S15 21.187 15 21.187 14.999 29 11.999 32c-3 3-11.026 3-11.026 3z"/><circle fill="#FFCC4D" cx="8.999" cy="27" r="4"/><path fill="#55ACEE" d="M35.999 0s-10 0-22 10c-6 5-6 14-4 16s11 2 16-4c10-12 10-22 10-22z"/><path d="M26.999 5c-1.623 0-3.013.971-3.641 2.36.502-.227 1.055-.36 1.641-.36 2.209 0 4 1.791 4 4 0 .586-.133 1.139-.359 1.64 1.389-.627 2.359-2.017 2.359-3.64 0-2.209-1.791-4-4-4z"/><path fill="#A0041E" d="M8 28s0-4 1-5 13.001-10.999 14-10-9.001 13-10.001 14S8 28 8 28z"/>
  </symbol>
  
  <symbol id="smiling_face_with_sunglasses" class="1F60E" viewBox="0 0 36 36">
    <path fill="#FFCC4D" d="M36 18c0 9.941-8.059 18-18 18S0 27.941 0 18 8.059 0 18 0s18 8.059 18 18"/><path fill-rule="evenodd" clip-rule="evenodd" fill="#292F33" d="M1.24 11.018c.24.239 1.438.957 1.677 1.675.24.717.72 4.784 2.158 5.981 1.483 1.232 7.077.774 8.148.24 2.397-1.195 2.691-4.531 3.115-6.221.239-.957 1.677-.957 1.677-.957s1.438 0 1.678.956c.424 1.691.72 5.027 3.115 6.221 1.072.535 6.666.994 8.151-.238 1.436-1.197 1.915-5.264 2.155-5.982.238-.717 1.438-1.435 1.677-1.674.241-.239.241-1.196 0-1.436-.479-.478-6.134-.904-12.223-.239-1.215.133-1.677.478-4.554.478-2.875 0-3.339-.346-4.553-.478-6.085-.666-11.741-.24-12.221.238-.239.239-.239 1.197 0 1.436z"/><path fill="#664500" d="M27.335 23.629c-.178-.161-.444-.171-.635-.029-.039.029-3.922 2.9-8.7 2.9-4.766 0-8.662-2.871-8.7-2.9-.191-.142-.457-.13-.635.029-.177.16-.217.424-.094.628C8.7 24.472 11.788 29.5 18 29.5s9.301-5.028 9.429-5.243c.123-.205.084-.468-.094-.628z"/>
  </symbol>

  <symbol id="sparkles" class="2728" viewBox="0 0 36 36">
    <path fill="#FFAC33" d="M34.347 16.893l-8.899-3.294-3.323-10.891c-.128-.42-.517-.708-.956-.708-.439 0-.828.288-.956.708l-3.322 10.891-8.9 3.294c-.393.146-.653.519-.653.938 0 .418.26.793.653.938l8.895 3.293 3.324 11.223c.126.424.516.715.959.715.442 0 .833-.291.959-.716l3.324-11.223 8.896-3.293c.391-.144.652-.518.652-.937 0-.418-.261-.792-.653-.938z"/><path fill="#FFCC4D" d="M14.347 27.894l-2.314-.856-.9-3.3c-.118-.436-.513-.738-.964-.738-.451 0-.846.302-.965.737l-.9 3.3-2.313.856c-.393.145-.653.52-.653.938 0 .418.26.793.653.938l2.301.853.907 3.622c.112.444.511.756.97.756.459 0 .858-.312.97-.757l.907-3.622 2.301-.853c.393-.144.653-.519.653-.937 0-.418-.26-.793-.653-.937zM10.009 6.231l-2.364-.875-.876-2.365c-.145-.393-.519-.653-.938-.653-.418 0-.792.26-.938.653l-.875 2.365-2.365.875c-.393.146-.653.52-.653.938 0 .418.26.793.653.938l2.365.875.875 2.365c.146.393.52.653.938.653.418 0 .792-.26.938-.653l.875-2.365 2.365-.875c.393-.146.653-.52.653-.938 0-.418-.26-.792-.653-.938z"/>
  </symbol>

  <symbol id="trophy" class="1F3C6" viewBox="0 0 36 36">
    <path fill="#FFAC33" d="M5.123 5h6C12.227 5 13 4.896 13 6V4c0-1.104-.773-2-1.877-2h-8c-2 0-3.583 2.125-3 5 0 0 1.791 9.375 1.917 9.958C2.373 18.5 4.164 20 6.081 20h6.958c1.105 0-.039-1.896-.039-3v-2c0 1.104-.773 2-1.877 2h-4c-1.104 0-1.833-1.042-2-2S3.539 7.667 3.539 7.667C3.206 5.75 4.018 5 5.123 5zm25.812 0h-6C23.831 5 22 4.896 22 6V4c0-1.104 1.831-2 2.935-2h8c2 0 3.584 2.125 3 5 0 0-1.633 9.419-1.771 10-.354 1.5-2.042 3-4 3h-7.146C21.914 20 22 18.104 22 17v-2c0 1.104 1.831 2 2.935 2h4c1.104 0 1.834-1.042 2-2s1.584-7.333 1.584-7.333C32.851 5.75 32.04 5 30.935 5zM20.832 22c0-6.958-2.709 0-2.709 0s-3-6.958-3 0-3.291 10-3.291 10h12.292c-.001 0-3.292-3.042-3.292-10z"/><path fill="#FFCC4D" d="M29.123 6.577c0 6.775-6.77 18.192-11 18.192-4.231 0-11-11.417-11-18.192 0-5.195 1-6.319 3-6.319 1.374 0 6.025-.027 8-.027l7-.001c2.917-.001 4 .684 4 6.347z"/><path fill="#C1694F" d="M27 33c0 1.104.227 2-.877 2h-16C9.018 35 9 34.104 9 33v-1c0-1.104 1.164-2 2.206-2h13.917c1.042 0 1.877.896 1.877 2v1z"/><path fill="#C1694F" d="M29 34.625c0 .76.165 1.375-1.252 1.375H8.498C7.206 36 7 35.385 7 34.625v-.25C7 33.615 7.738 33 8.498 33h19.25c.759 0 1.252.615 1.252 1.375v.25z"/>
  </symbol>

  <symbol id="twisted_rightwards_arrows" class="1F500" viewBox="0 0 36 36">
    <path fill="#3B88C3" d="M36 32c0 2.209-1.791 4-4 4H4c-2.209 0-4-1.791-4-4V4c0-2.209 1.791-4 4-4h28c2.209 0 4 1.791 4 4v28z"/><path d="M12.953 15.717c.549-1.394 1.234-2.861 2.175-4.142C13.95 10.064 12.351 9 10 9H7v4h3c1.307 0 2.119.896 2.953 2.717zm6.527 5.424c-.478 1.314-1.059 2.777-1.852 4.132C18.718 26.318 20.117 27 22 27h3v-4h-3c-1.082 0-1.822-.62-2.52-1.859z" fill="#FFF"/><path fill="#FFF" d="M10 27H7v-4h3c1.884 0 2.739-1.816 4.117-5.673C15.441 13.617 17.09 9 22 9h3v4h-3c-1.885 0-2.739 1.817-4.117 5.673C16.559 22.383 14.91 27 10 27z"/><path fill="#FFF" d="M30.2 11L23 5v12zm0 14L23 19v12z"/>
  </symbol>

  <symbol id="white_medium_star" class="2B50" viewBox="0 0 36 36">
    <path fill="#FFAC33" d="M27.287 34.627c-.404 0-.806-.124-1.152-.371L18 28.422l-8.135 5.834c-.693.496-1.623.496-2.312-.008-.689-.499-.979-1.385-.721-2.194l3.034-9.792-8.062-5.681c-.685-.505-.97-1.393-.708-2.203.264-.808 1.016-1.357 1.866-1.363L12.947 13l3.179-9.549c.268-.809 1.023-1.353 1.874-1.353.851 0 1.606.545 1.875 1.353L23 13l10.036.015c.853.006 1.606.556 1.867 1.363.263.81-.022 1.698-.708 2.203l-8.062 5.681 3.034 9.792c.26.809-.033 1.695-.72 2.194-.347.254-.753.379-1.16.379z"/>
  </symbol>

  <symbol id="woman_technologist" class="1F469-200d-1f4bb" viewBox="0 0 36 36">
    <path fill="#9266CC" d="M35 36v-7c0-3.315-3.685-5.5-7-5.5H16c-3.313 0-7 2.185-7 5.5v7h26z"/><path fill="#FFAC33" d="M21.944 1.569c4.106 0 10.948 2.053 10.948 10.948s0 10.948-2.053 10.948c-2.054 0-4.79-2.053-8.896-2.053-4.105 0-6.784 2.053-8.895 2.053-2.287 0-2.053-8.211-2.053-10.948.002-8.895 6.844-10.948 10.949-10.948"/><path fill="#FFDC5D" d="M18.328 23.52C18.328 25 20.5 25.5 22 25.5s3.66-.5 3.66-1.98v-3.205h-7.332v3.205z"/><path fill="#F9CA55" d="M18.321 21.679c1.023 1.155 2.291 1.468 3.669 1.468 1.379 0 2.647-.312 3.67-1.468v-2.936h-7.339v2.936z"/><path fill="#FFDC5D" d="M13.734 12.217c0-5.834 3.676-10.563 8.21-10.563 4.534 0 8.211 4.729 8.211 10.563 0 5.833-3.677 10.286-8.211 10.286-4.534 0-8.21-4.452-8.21-10.286"/><path fill="#DF1F32" d="M21.944 20.043c-1.605 0-2.446-.794-2.536-.885-.268-.267-.268-.7 0-.967.266-.265.692-.267.96-.007.035.032.553.491 1.576.491 1.039 0 1.557-.473 1.577-.492.273-.256.703-.248.963.02.26.269.26.691-.004.955-.089.091-.929.885-2.536.885"/><path fill="#FFAC33" d="M11.725 15.5c-.021-1-.044-.224-.044-.465 0-3.422 2.053.494 2.053-1.943 0-2.439 1.368-2.683 2.736-4.051.685-.685 2.053-2.026 2.053-2.026s3.421 2.067 6.158 2.067c2.736 0 5.474 1.375 5.474 4.112s2.053-1.584 2.053 1.837c0 .244-.022-.531-.04.469h.718c.007-2 .007-1.924.007-3.202C32.893 3.403 26.05.091 21.945.091S10.998 3.348 10.998 12.243c0 .793-.02 1.257.008 3.257h.719z"/><path fill="#662113" d="M18.608 14.386c-.465 0-.846-.381-.846-.846v-.845c0-.465.381-.846.846-.846s.847.381.847.846v.845c0 .465-.382.846-.847.846m6.765 0c-.465 0-.846-.381-.846-.846v-.845c0-.465.381-.846.846-.846.465 0 .846.381.846.846v.845c0 .465-.381.846-.846.846"/><path fill="#C1694F" d="M22.837 17h-1.691c-.233 0-.423-.19-.423-.423v-.153c0-.233.189-.424.423-.424h1.691c.232 0 .423.19.423.424v.153c0 .233-.191.423-.423.423"/><path fill="#FFDC5D" d="M15.444 13.436c0 1.448-.734 2.622-1.639 2.622s-1.639-1.174-1.639-2.622.734-2.623 1.639-2.623c.905-.001 1.639 1.174 1.639 2.623m16.389 0c0 1.448-.733 2.622-1.639 2.622-.905 0-1.639-1.174-1.639-2.622s.733-2.623 1.639-2.623c.906-.001 1.639 1.174 1.639 2.623"/><path fill="#E1E8ED" d="M33 35c0 .553-.447 1-1 1H22c-.553 0-1-.447-1-1 0-.553.447-1 1-1h10c.553 0 1 .447 1 1z"/><path fill="#E1E8ED" d="M20.24 22H3.759c-1.524 0-3.478.771-2.478 3.531l3.072 8.475C4.354 34.006 4.75 36 7 36h20l-4-11.24c-.438-1.322-1.235-2.76-2.76-2.76z"/><path fill="#99AAB5" d="M19.24 22H2.759c-1.524 0-3.478.771-2.478 3.531l3.072 8.475C3.354 34.006 3.75 36 6 36h20l-4-11.24c-.438-1.322-1.235-2.76-2.76-2.76z"/><path fill="#E1E8ED" d="M14.019 29.283c.524 1.572.1 3.13-.949 3.479-1.047.35-2.322-.641-2.846-2.213s-.099-3.13.949-3.479c1.048-.349 2.323.641 2.846 2.213zM19 24.75H3c-.414 0-.75-.336-.75-.75s.336-.75.75-.75h16c.414 0 .75.336.75.75s-.336.75-.75.75z"/>
  </symbol>
  
  <symbol id="wrapped_present" class="1F381" viewBox="0 0 36 36">
    <path fill="#FDD888" d="M33 31c0 2.2-1.8 4-4 4H7c-2.2 0-4-1.8-4-4V14c0-2.2 1.8-4 4-4h22c2.2 0 4 1.8 4 4v17z"/><path fill="#FDD888" d="M36 11c0 2.2-1.8 4-4 4H4c-2.2 0-4-1.8-4-4s1.8-4 4-4h28c2.2 0 4 1.8 4 4z"/><path fill="#FCAB40" d="M3 15h30v2H3z"/><path fill="#DA2F47" d="M19 3h-2c-1.657 0-3 1.343-3 3v29h8V6c0-1.656-1.343-3-3-3z"/><path fill="#DA2F47" d="M16 7c1.1 0 1.263-.516.361-1.147L9.639 1.147c-.902-.631-2.085-.366-2.631.589L4.992 5.264C4.446 6.219 4.9 7 6 7h10zm4 0c-1.1 0-1.263-.516-.361-1.147l6.723-4.706c.901-.631 2.085-.366 2.631.589l2.016 3.527C31.554 6.219 31.1 7 30 7H20z"/>
  </symbol>
</svg>
