<svg xmlns="http://www.w3.org/2000/svg" xmlns:xlink="http://www.w3.org/1999/xlink">
  <!-- To add a new symbol to this sprite:
   - Create a new symbol markup:
    <symbol id="" class="" viewBox="0 0 36 36">
    </symbol>
   - Paste the content of the svg
   - Paste the viewBox content of the svg in the symbol markup
   - assign an id to symbol
   - assign the unicode equivalent as class name (optional)
   - call this svg via:
    <svg id="logo">
      <use href='images/sprite.svg#mynewid' />
    </svg>
  
  -->
  
  <symbol id="bar_chart" class="1F4CA" viewBox="0 0 36 36">
    <path fill="#CCD6DD" d="M31 2H5C3.343 2 2 3.343 2 5v26c0 1.657 1.343 3 3 3h26c1.657 0 3-1.343 3-3V5c0-1.657-1.343-3-3-3z"/><path fill="#E1E8ED" d="M31 1H5C2.791 1 1 2.791 1 5v26c0 2.209 1.791 4 4 4h26c2.209 0 4-1.791 4-4V5c0-2.209-1.791-4-4-4zm0 2c1.103 0 2 .897 2 2v4h-6V3h4zm-4 16h6v6h-6v-6zm0-2v-6h6v6h-6zM25 3v6h-6V3h6zm-6 8h6v6h-6v-6zm0 8h6v6h-6v-6zM17 3v6h-6V3h6zm-6 8h6v6h-6v-6zm0 8h6v6h-6v-6zM3 5c0-1.103.897-2 2-2h4v6H3V5zm0 6h6v6H3v-6zm0 8h6v6H3v-6zm2 14c-1.103 0-2-.897-2-2v-4h6v6H5zm6 0v-6h6v6h-6zm8 0v-6h6v6h-6zm12 0h-4v-6h6v4c0 1.103-.897 2-2 2z"/><path fill="#5C913B" d="M13 33H7V16c0-1.104.896-2 2-2h2c1.104 0 2 .896 2 2v17z"/><path fill="#3B94D9" d="M29 33h-6V9c0-1.104.896-2 2-2h2c1.104 0 2 .896 2 2v24z"/><path fill="#DD2E44" d="M21 33h-6V23c0-1.104.896-2 2-2h2c1.104 0 2 .896 2 2v10z"/>
  </symbol>
  
  <symbol id="gear" class="2699" viewBox="0 0 36 36">
    <path fill="#66757F" d="M34 15h-3.362c-.324-1.369-.864-2.651-1.582-3.814l2.379-2.379c.781-.781.781-2.048 0-2.829l-1.414-1.414c-.781-.781-2.047-.781-2.828 0l-2.379 2.379C23.65 6.225 22.369 5.686 21 5.362V2c0-1.104-.896-2-2-2h-2c-1.104 0-2 .896-2 2v3.362c-1.369.324-2.651.864-3.814 1.582L8.808 4.565c-.781-.781-2.048-.781-2.828 0L4.565 5.979c-.781.781-.781 2.048-.001 2.829l2.379 2.379C6.225 12.35 5.686 13.632 5.362 15H2c-1.104 0-2 .896-2 2v2c0 1.104.896 2 2 2h3.362c.324 1.368.864 2.65 1.582 3.813l-2.379 2.379c-.78.78-.78 2.048.001 2.829l1.414 1.414c.78.78 2.047.78 2.828 0l2.379-2.379c1.163.719 2.445 1.258 3.814 1.582V34c0 1.104.896 2 2 2h2c1.104 0 2-.896 2-2v-3.362c1.368-.324 2.65-.864 3.813-1.582l2.379 2.379c.781.781 2.047.781 2.828 0l1.414-1.414c.781-.781.781-2.048 0-2.829l-2.379-2.379c.719-1.163 1.258-2.445 1.582-3.814H34c1.104 0 2-.896 2-2v-2C36 15.896 35.104 15 34 15zM18 26c-4.418 0-8-3.582-8-8s3.582-8 8-8 8 3.582 8 8-3.582 8-8 8z"/>
  </symbol>

  <symbol id="high_voltage_sign" class="26A1" viewBox="0 0 36 36">
    <path fill="#FFAC33" d="M32.938 15.651C32.792 15.26 32.418 15 32 15H19.925L26.89 1.458c.219-.426.106-.947-.271-1.243C26.437.071 26.218 0 26 0c-.233 0-.466.082-.653.243L18 6.588 3.347 19.243c-.316.273-.43.714-.284 1.105S3.582 21 4 21h12.075L9.11 34.542c-.219.426-.106.947.271 1.243.182.144.401.215.619.215.233 0 .466-.082.653-.243L18 29.412l14.653-12.655c.317-.273.43-.714.285-1.106z"/>
  </symbol>

  <symbol id="package" class="1F4E6" viewBox="0 0 36 36">
    <path fill="#662113" d="M4 11v12.375c0 2.042 1.093 2.484 1.093 2.484l11.574 9.099C18.489 36.39 18 33.375 18 33.375V22L4 11z"/><path fill="#C1694F" d="M32 11v12.375c0 2.042-1.063 2.484-1.063 2.484s-9.767 7.667-11.588 9.099C17.526 36.39 18 33.375 18 33.375V22l14-11z"/><path fill="#D99E82" d="M19.289.5c-.753-.61-1.988-.61-2.742 0L4.565 10.029c-.754.61-.754 1.607 0 2.216l12.023 9.646c.754.609 1.989.609 2.743 0l12.104-9.73c.754-.609.754-1.606 0-2.216L19.289.5z"/><path fill="#D99E82" d="M18 35.75c-.552 0-1-.482-1-1.078V21.745c0-.596.448-1.078 1-1.078.553 0 1 .482 1 1.078v12.927c0 .596-.447 1.078-1 1.078z"/><path fill="#99AAB5" d="M28 18.836c0 1.104.104 1.646-1 2.442l-2.469 1.878c-1.104.797-1.531.113-1.531-.992v-2.961c0-.193-.026-.4-.278-.608C20.144 16.47 10.134 8.519 8.31 7.051l4.625-3.678c1.266.926 10.753 8.252 14.722 11.377.197.156.343.328.343.516v3.57z"/><path fill="#CCD6DD" d="M27.656 14.75C23.688 11.625 14.201 4.299 12.935 3.373l-1.721 1.368-2.904 2.31c1.825 1.468 11.834 9.419 14.412 11.544.151.125.217.25.248.371L27.903 15c-.06-.087-.146-.171-.247-.25z"/><path fill="#CCD6DD" d="M28 18.836v-3.57c0-.188-.146-.359-.344-.516-3.968-3.125-13.455-10.451-14.721-11.377l-2.073 1.649c3.393 2.669 12.481 9.681 14.86 11.573.256.204.278.415.278.608v4.836l1-.761c1.104-.797 1-1.338 1-2.442z"/><path fill="#E1E8ED" d="M27.656 14.75C23.688 11.625 14.201 4.299 12.935 3.373l-2.073 1.649c3.393 2.669 12.481 9.681 14.86 11.573.037.029.06.059.087.088L27.903 15c-.06-.087-.146-.171-.247-.25z"/>
  </symbol>

  <symbol id="party_popper" class="1F389" viewBox="0 0 36 36">
    <path fill="#DD2E44" d="M11.626 7.488c-.112.112-.197.247-.268.395l-.008-.008L.134 33.141l.011.011c-.208.403.14 1.223.853 1.937.713.713 1.533 1.061 1.936.853l.01.01L28.21 24.735l-.008-.009c.147-.07.282-.155.395-.269 1.562-1.562-.971-6.627-5.656-11.313-4.687-4.686-9.752-7.218-11.315-5.656z"/><path fill="#EA596E" d="M13 12L.416 32.506l-.282.635.011.011c-.208.403.14 1.223.853 1.937.232.232.473.408.709.557L17 17l-4-5z"/><path fill="#A0041E" d="M23.012 13.066c4.67 4.672 7.263 9.652 5.789 11.124-1.473 1.474-6.453-1.118-11.126-5.788-4.671-4.672-7.263-9.654-5.79-11.127 1.474-1.473 6.454 1.119 11.127 5.791z"/><path fill="#AA8DD8" d="M18.59 13.609c-.199.161-.459.245-.734.215-.868-.094-1.598-.396-2.109-.873-.541-.505-.808-1.183-.735-1.862.128-1.192 1.324-2.286 3.363-2.066.793.085 1.147-.17 1.159-.292.014-.121-.277-.446-1.07-.532-.868-.094-1.598-.396-2.11-.873-.541-.505-.809-1.183-.735-1.862.13-1.192 1.325-2.286 3.362-2.065.578.062.883-.057 1.012-.134.103-.063.144-.123.148-.158.012-.121-.275-.446-1.07-.532-.549-.06-.947-.552-.886-1.102.059-.549.55-.946 1.101-.886 2.037.219 2.973 1.542 2.844 2.735-.13 1.194-1.325 2.286-3.364 2.067-.578-.063-.88.057-1.01.134-.103.062-.145.123-.149.157-.013.122.276.446 1.071.532 2.037.22 2.973 1.542 2.844 2.735-.129 1.192-1.324 2.286-3.362 2.065-.578-.062-.882.058-1.012.134-.104.064-.144.124-.148.158-.013.121.276.446 1.07.532.548.06.947.553.886 1.102-.028.274-.167.511-.366.671z"/><path fill="#77B255" d="M30.661 22.857c1.973-.557 3.334.323 3.658 1.478.324 1.154-.378 2.615-2.35 3.17-.77.216-1.001.584-.97.701.034.118.425.312 1.193.095 1.972-.555 3.333.325 3.657 1.479.326 1.155-.378 2.614-2.351 3.17-.769.216-1.001.585-.967.702.033.117.423.311 1.192.095.53-.149 1.084.16 1.233.691.148.532-.161 1.084-.693 1.234-1.971.555-3.333-.323-3.659-1.479-.324-1.154.379-2.613 2.353-3.169.77-.217 1.001-.584.967-.702-.032-.117-.422-.312-1.19-.096-1.974.556-3.334-.322-3.659-1.479-.325-1.154.378-2.613 2.351-3.17.768-.215.999-.585.967-.701-.034-.118-.423-.312-1.192-.096-.532.15-1.083-.16-1.233-.691-.149-.53.161-1.082.693-1.232z"/><path fill="#AA8DD8" d="M23.001 20.16c-.294 0-.584-.129-.782-.375-.345-.432-.274-1.061.156-1.406.218-.175 5.418-4.259 12.767-3.208.547.078.927.584.849 1.131-.078.546-.58.93-1.132.848-6.493-.922-11.187 2.754-11.233 2.791-.186.148-.406.219-.625.219z"/><path fill="#77B255" d="M5.754 16c-.095 0-.192-.014-.288-.042-.529-.159-.829-.716-.67-1.245 1.133-3.773 2.16-9.794.898-11.364-.141-.178-.354-.353-.842-.316-.938.072-.849 2.051-.848 2.071.042.551-.372 1.031-.922 1.072-.559.034-1.031-.372-1.072-.923-.103-1.379.326-4.035 2.692-4.214 1.056-.08 1.933.287 2.552 1.057 2.371 2.951-.036 11.506-.542 13.192-.13.433-.528.712-.958.712z"/><circle fill="#5C913B" cx="25.5" cy="9.5" r="1.5"/><circle fill="#9266CC" cx="2" cy="18" r="2"/><circle fill="#5C913B" cx="32.5" cy="19.5" r="1.5"/><circle fill="#5C913B" cx="23.5" cy="31.5" r="1.5"/><circle fill="#FFCC4D" cx="28" cy="4" r="2"/><circle fill="#FFCC4D" cx="32.5" cy="8.5" r="1.5"/><circle fill="#FFCC4D" cx="29.5" cy="12.5" r="1.5"/><circle fill="#FFCC4D" cx="7.5" cy="23.5" r="1.5"/>
  </symbol>

  <symbol id="rocket" class="1F680" viewBox="0 0 36 36">
    <path fill="#A0041E" d="M1 17l8-7 16 1 1 16-7 8s.001-5.999-6-12-12-6-12-6z"/><path fill="#FFAC33" d="M.973 35s-.036-7.979 2.985-11S15 21.187 15 21.187 14.999 29 11.999 32c-3 3-11.026 3-11.026 3z"/><circle fill="#FFCC4D" cx="8.999" cy="27" r="4"/><path fill="#55ACEE" d="M35.999 0s-10 0-22 10c-6 5-6 14-4 16s11 2 16-4c10-12 10-22 10-22z"/><path d="M26.999 5c-1.623 0-3.013.971-3.641 2.36.502-.227 1.055-.36 1.641-.36 2.209 0 4 1.791 4 4 0 .586-.133 1.139-.359 1.64 1.389-.627 2.359-2.017 2.359-3.64 0-2.209-1.791-4-4-4z"/><path fill="#A0041E" d="M8 28s0-4 1-5 13.001-10.999 14-10-9.001 13-10.001 14S8 28 8 28z"/>
  </symbol>
  
  <symbol id="smiling_face_with_sunglasses" class="1F60E" viewBox="0 0 36 36">
    <path fill="#FFCC4D" d="M36 18c0 9.941-8.059 18-18 18S0 27.941 0 18 8.059 0 18 0s18 8.059 18 18"/><path fill-rule="evenodd" clip-rule="evenodd" fill="#292F33" d="M1.24 11.018c.24.239 1.438.957 1.677 1.675.24.717.72 4.784 2.158 5.981 1.483 1.232 7.077.774 8.148.24 2.397-1.195 2.691-4.531 3.115-6.221.239-.957 1.677-.957 1.677-.957s1.438 0 1.678.956c.424 1.691.72 5.027 3.115 6.221 1.072.535 6.666.994 8.151-.238 1.436-1.197 1.915-5.264 2.155-5.982.238-.717 1.438-1.435 1.677-1.674.241-.239.241-1.196 0-1.436-.479-.478-6.134-.904-12.223-.239-1.215.133-1.677.478-4.554.478-2.875 0-3.339-.346-4.553-.478-6.085-.666-11.741-.24-12.221.238-.239.239-.239 1.197 0 1.436z"/><path fill="#664500" d="M27.335 23.629c-.178-.161-.444-.171-.635-.029-.039.029-3.922 2.9-8.7 2.9-4.766 0-8.662-2.871-8.7-2.9-.191-.142-.457-.13-.635.029-.177.16-.217.424-.094.628C8.7 24.472 11.788 29.5 18 29.5s9.301-5.028 9.429-5.243c.123-.205.084-.468-.094-.628z"/>
  </symbol>

  <symbol id="trophy" class="1F3C6" viewBox="0 0 36 36">
    <path fill="#FFAC33" d="M5.123 5h6C12.227 5 13 4.896 13 6V4c0-1.104-.773-2-1.877-2h-8c-2 0-3.583 2.125-3 5 0 0 1.791 9.375 1.917 9.958C2.373 18.5 4.164 20 6.081 20h6.958c1.105 0-.039-1.896-.039-3v-2c0 1.104-.773 2-1.877 2h-4c-1.104 0-1.833-1.042-2-2S3.539 7.667 3.539 7.667C3.206 5.75 4.018 5 5.123 5zm25.812 0h-6C23.831 5 22 4.896 22 6V4c0-1.104 1.831-2 2.935-2h8c2 0 3.584 2.125 3 5 0 0-1.633 9.419-1.771 10-.354 1.5-2.042 3-4 3h-7.146C21.914 20 22 18.104 22 17v-2c0 1.104 1.831 2 2.935 2h4c1.104 0 1.834-1.042 2-2s1.584-7.333 1.584-7.333C32.851 5.75 32.04 5 30.935 5zM20.832 22c0-6.958-2.709 0-2.709 0s-3-6.958-3 0-3.291 10-3.291 10h12.292c-.001 0-3.292-3.042-3.292-10z"/><path fill="#FFCC4D" d="M29.123 6.577c0 6.775-6.77 18.192-11 18.192-4.231 0-11-11.417-11-18.192 0-5.195 1-6.319 3-6.319 1.374 0 6.025-.027 8-.027l7-.001c2.917-.001 4 .684 4 6.347z"/><path fill="#C1694F" d="M27 33c0 1.104.227 2-.877 2h-16C9.018 35 9 34.104 9 33v-1c0-1.104 1.164-2 2.206-2h13.917c1.042 0 1.877.896 1.877 2v1z"/><path fill="#C1694F" d="M29 34.625c0 .76.165 1.375-1.252 1.375H8.498C7.206 36 7 35.385 7 34.625v-.25C7 33.615 7.738 33 8.498 33h19.25c.759 0 1.252.615 1.252 1.375v.25z"/>
  </symbol>
  
  <symbol id="woman_technologist" class="1F469-200d-1f4bb" viewBox="0 0 36 36">
    <path fill="#9266CC" d="M35 36v-7c0-3.315-3.685-5.5-7-5.5H16c-3.313 0-7 2.185-7 5.5v7h26z"/><path fill="#FFAC33" d="M21.944 1.569c4.106 0 10.948 2.053 10.948 10.948s0 10.948-2.053 10.948c-2.054 0-4.79-2.053-8.896-2.053-4.105 0-6.784 2.053-8.895 2.053-2.287 0-2.053-8.211-2.053-10.948.002-8.895 6.844-10.948 10.949-10.948"/><path fill="#FFDC5D" d="M18.328 23.52C18.328 25 20.5 25.5 22 25.5s3.66-.5 3.66-1.98v-3.205h-7.332v3.205z"/><path fill="#F9CA55" d="M18.321 21.679c1.023 1.155 2.291 1.468 3.669 1.468 1.379 0 2.647-.312 3.67-1.468v-2.936h-7.339v2.936z"/><path fill="#FFDC5D" d="M13.734 12.217c0-5.834 3.676-10.563 8.21-10.563 4.534 0 8.211 4.729 8.211 10.563 0 5.833-3.677 10.286-8.211 10.286-4.534 0-8.21-4.452-8.21-10.286"/><path fill="#DF1F32" d="M21.944 20.043c-1.605 0-2.446-.794-2.536-.885-.268-.267-.268-.7 0-.967.266-.265.692-.267.96-.007.035.032.553.491 1.576.491 1.039 0 1.557-.473 1.577-.492.273-.256.703-.248.963.02.26.269.26.691-.004.955-.089.091-.929.885-2.536.885"/><path fill="#FFAC33" d="M11.725 15.5c-.021-1-.044-.224-.044-.465 0-3.422 2.053.494 2.053-1.943 0-2.439 1.368-2.683 2.736-4.051.685-.685 2.053-2.026 2.053-2.026s3.421 2.067 6.158 2.067c2.736 0 5.474 1.375 5.474 4.112s2.053-1.584 2.053 1.837c0 .244-.022-.531-.04.469h.718c.007-2 .007-1.924.007-3.202C32.893 3.403 26.05.091 21.945.091S10.998 3.348 10.998 12.243c0 .793-.02 1.257.008 3.257h.719z"/><path fill="#662113" d="M18.608 14.386c-.465 0-.846-.381-.846-.846v-.845c0-.465.381-.846.846-.846s.847.381.847.846v.845c0 .465-.382.846-.847.846m6.765 0c-.465 0-.846-.381-.846-.846v-.845c0-.465.381-.846.846-.846.465 0 .846.381.846.846v.845c0 .465-.381.846-.846.846"/><path fill="#C1694F" d="M22.837 17h-1.691c-.233 0-.423-.19-.423-.423v-.153c0-.233.189-.424.423-.424h1.691c.232 0 .423.19.423.424v.153c0 .233-.191.423-.423.423"/><path fill="#FFDC5D" d="M15.444 13.436c0 1.448-.734 2.622-1.639 2.622s-1.639-1.174-1.639-2.622.734-2.623 1.639-2.623c.905-.001 1.639 1.174 1.639 2.623m16.389 0c0 1.448-.733 2.622-1.639 2.622-.905 0-1.639-1.174-1.639-2.622s.733-2.623 1.639-2.623c.906-.001 1.639 1.174 1.639 2.623"/><path fill="#E1E8ED" d="M33 35c0 .553-.447 1-1 1H22c-.553 0-1-.447-1-1 0-.553.447-1 1-1h10c.553 0 1 .447 1 1z"/><path fill="#E1E8ED" d="M20.24 22H3.759c-1.524 0-3.478.771-2.478 3.531l3.072 8.475C4.354 34.006 4.75 36 7 36h20l-4-11.24c-.438-1.322-1.235-2.76-2.76-2.76z"/><path fill="#99AAB5" d="M19.24 22H2.759c-1.524 0-3.478.771-2.478 3.531l3.072 8.475C3.354 34.006 3.75 36 6 36h20l-4-11.24c-.438-1.322-1.235-2.76-2.76-2.76z"/><path fill="#E1E8ED" d="M14.019 29.283c.524 1.572.1 3.13-.949 3.479-1.047.35-2.322-.641-2.846-2.213s-.099-3.13.949-3.479c1.048-.349 2.323.641 2.846 2.213zM19 24.75H3c-.414 0-.75-.336-.75-.75s.336-.75.75-.75h16c.414 0 .75.336.75.75s-.336.75-.75.75z"/>
  </symbol>

  <symbol id="world_map" class="1F5FA" viewBox="0 0 36 36">
    <path fill="#CCD6DD" d="M12 7.607L3 5.196c-1.657-.444-3 .539-3 2.197v20c0 1.656 1.343 3.359 3 3.804l9 2.411V7.607zm12 22.786l9 2.411c1.656.443 3-.54 3-2.196v-20c0-1.657-1.344-3.36-3-3.804l-9-2.411v26z"/><path fill="#E1E8ED" d="M24 30.392l-12 3.215v-26l12-3.215z"/><path fill="#55ACEE" d="M12 9.607L4 7.463c-1.104-.296-2 .36-2 1.464v18c0 1.104.896 2.24 2 2.535l8 2.145v-22zm20-1.072l-8-2.144v22l8 2.144c1.104.296 2-.359 2-1.465v-18c0-1.103-.896-2.239-2-2.535z"/><path fill="#88C9F9" d="M24 28.392l-12 3.215v-22l12-3.215z"/><path fill="#5C913B" d="M12 21.506c-.268.006-.595.104-.845.145-.436.073-.329.517-.463.443-.135-.074-.475-.265-.812-.658-.337-.394.25-.477.418-.622.168-.145-.316-.172-.485-.332-.169-.159-.471.104-.739-.276-.27-.376-.101-.79-.133-1.18-.034-.39.436-.341.739-.334.303.003.538.144.538.602 0 .456.37.708.269.146-.101-.561.101-.657.235-.89.134-.23.37-.55.672-1.04.221-.358.389-.283.606-.164v-3.345c-.055-.044-.11-.09-.165-.113-.303-.132.096.753-.139 1.109-.237.356-.598.193-.97.094-.369-.099-.713-.545-.443-1.007.268-.462.782-.268 1.051-.653.269-.385-.957-.672-1.394-.941-.438-.271-.963-.409-1.4-.146-.437.264-1.373.133-1.743.186-.37.054-.436-.369-.503-.693-.067-.322-.653-.329-1.257-.338-.606-.01-1.741.281-1.547 1.759.068.514.605.124.707.036.101-.088.605.2.671.637.068.439.035.887-.099 1.232-.137.345.336 1.006.604 1.612.269.605.573.686.707.723.135.036.908.587.875.996-.033.411.706.991 1.009 1.34.303.35.494.662.887.846.393.183.852 1.035 1.054 1.165.155.1.418.451.576.58-.208.242-.612.748-.612 1.029 0 .383.44 1.103.608 1.3.167.196.65.442.751.85.101.407-.07 1.646-.372 1.907-.304.262-.414 1.043-.414 1.043s.107.293.465.124c.309-.144.776-.566 1.094-.801v-6.371z"/><path fill="#77B255" d="M12.268 17.413c-.1.016-.187.012-.268.011v-3.345c.254.065.512.317.707.736.234.509.604.066.739.374.134.308.875.758.505.742-.371-.015-.741.008-.841.454-.102.448.168.794-.102.828-.27.033-.37.142-.74.2zm2.59 5.558c-.436-.074-.359-.023-.628-.599-.268-.577-.431-.743-1.036-.656-.605.087-.583.136-.751-.163-.072-.128-.241-.082-.443.031v6.37c.09-.114.17-.211.228-.267.505-.477.996-1.026 1.466-1.646.47-.621.3-.924.535-1.481.236-.558.541-.617.944-1.145.405-.53.122-.368-.315-.444zM24 15.731V9.417c-.04.004-.068.012-.11.015-.209.011-.482.135-.779.32-.024-.005-.046-.016-.07-.021-.896-.175-1.312 1.205-2.039 1.152-.729-.053-1.7-.344-2.332.514-.631.857-.777 1.53 0 1.294s1.312-1.425 1.7-1.089c.388.336.29.721-.632 1.105-.922.385-1.918.817-2.452.96-.534.143-.655.534-.292.822.364.288-.219.471-.826 1.02-.607.547.146.512.656.705.51.193.898-.323 1.117-.932.217-.608 1.158-1.521 1.55-1.544.392-.023.392.197.318.602-.013.071.001.103.011.138-.17.54-.31 1.03-.365 1.306-.026.135-.031.351-.027.595-.086.004-.183.021-.248.001-.438-.129-1.434-.22-1.701.043-.267.265-.412.502-.728.723-.317.219-1.603 1.224-1.627 2.084-.025.859-.049 1.83.461 1.721.51-.109 1.749-.826 2.137-1.288.387-.463.921-.522 1.092-.156.17.369.048.649-.12 1.354-.171.708.11.963.381 1.468.273.504.491.775.491 1.189 0 .412.389.723.97-.123.188-.27.367-.606.536-.957.409-.469.768-.923.758-1.096-.016-.281-.021-.434-.024-.624l.091-.22c.127-.293.241-.746.362-1.155.007-.01.013-.017.02-.024.237-.337.185-.353.58-.756.264-.27.254-.512.214-.678.105-.175.134-.28-.033-.235l-.016.004c-.002 0-.005.019-.006.014-.023-.149-.206.003-.501.148-.284.008-.566-.066-.668-.368-.133-.396-.602-.996-.639-1.336.003-.041.005-.077.01-.124.014-.036.033-.066.069-.088.038-.022.075-.03.112-.035.041.111.075.279.086.464.026.477.394.196.394.498 0 .303.53.492.661.548.037.016.094-.027.159-.098.031.011.06.033.093.037.292.031.922-.984 1.117-1.164.102-.095.104-.269.033-.394l.056-.025z"/><path fill="#5C913B" d="M27.634 20.221c-.053.44.184.201.606.705.423.508-.104.394-.289.316-.185-.08-.37-.131-.579-.518-.213-.391 0-.695 0-1.027 0 0 .316.084.262.524zm.362-.901c.389.166.114-.482.244-.841.132-.356.316-.368.555-.363.236.002.422-.191.581-.389.157-.199.448-.454.422-.733-.026-.279-.104-.482-.212-.843-.105-.36.316-.368.502-.711.184-.343 0 0 .421-.008.422-.008.238-.058.316-.218.08-.159.133-.327.054-.68-.078-.353-.37-.1-.66-.177-.289-.077.106-.425.132-.78.026-.356.397-.165.661-.125.263.039.342.484.421.597.081.112.895-.365 1.108-.641.211-.275-.186-.291-.079-.403.106-.111-.632-.337-.925-.469-.289-.133-1.028-.367-1.318-.649-.289-.283-1.396-.426-1.688-.337-.291.086-.476-.143-.606-.406-.131-.262-.686-.297-.844-.467-.158-.17-.316.127-.529.16-.21.035-.289.043-.554-.209-.263-.252.08-.371-.288-.621-.355-.238-.813-.182-1.71-.591v6.314c.157.014.309.036.364.051.131.035.448.573.448.784 0 .211.158.828.291 1.195.131.366.42.506.686.818.264.312.394.137.394.137s-.105-.544-.105-.965c0-.424.316-.701.316-.701s.5.558.528.685c.026.128.421.656.449.876.026.219.237.546.625.71zm2.092-2.068c.184.08.976.171.554-.334-.423-.506-.106-.299-.053-.738.053-.44-.264-.524-.264-.524 0 .332-.211.638 0 1.026.21.39-.423.49-.237.57zm2.004 5.371c-.131-.217-.421-.385-.738-.461-.315-.076-.29-.48-.606-.533-.316-.055-.544-.389-.686-.512-.312-.266-.106.209 0 .699.106.488.501.246.869.586.369.34.397.016.74.229.342.211.475.52.804.578.329.059-.25-.369-.383-.586zm-3.088-1.432c.262.402.159.043.504-.016.343-.059-.291-.561-.502-.799-.211-.238-.42-.301-.605.049-.21.399.342.364.603.766zm2.403 2.579c-.133-.338-.518-.713-.675-.91-.159-.193-.407-.312-.618-.279-.212.031-.343-.092-.448-.361-.106-.266-.29-.233-.449-.244-.157-.012-.791.119-1.161.23-.368.113-.537.252-.778.457-.382.32-.17.105 0 .424.168.318-.187 1.066-.213 1.543-.027.477.676.031.939.039.264.012.186-.189.396-.314.212-.125.349-.129.579.172.233.305.537.611.537.883 0 .27.834.947 1.151.852.316-.098.501-.408.791-.635.291-.225.186-.824.264-1.168.081-.344-.185-.354-.315-.689z"/>
  </symbol>
  
  <symbol id="wrapped_present" class="1F381" viewBox="0 0 36 36">
    <path fill="#FDD888" d="M33 31c0 2.2-1.8 4-4 4H7c-2.2 0-4-1.8-4-4V14c0-2.2 1.8-4 4-4h22c2.2 0 4 1.8 4 4v17z"/><path fill="#FDD888" d="M36 11c0 2.2-1.8 4-4 4H4c-2.2 0-4-1.8-4-4s1.8-4 4-4h28c2.2 0 4 1.8 4 4z"/><path fill="#FCAB40" d="M3 15h30v2H3z"/><path fill="#DA2F47" d="M19 3h-2c-1.657 0-3 1.343-3 3v29h8V6c0-1.656-1.343-3-3-3z"/><path fill="#DA2F47" d="M16 7c1.1 0 1.263-.516.361-1.147L9.639 1.147c-.902-.631-2.085-.366-2.631.589L4.992 5.264C4.446 6.219 4.9 7 6 7h10zm4 0c-1.1 0-1.263-.516-.361-1.147l6.723-4.706c.901-.631 2.085-.366 2.631.589l2.016 3.527C31.554 6.219 31.1 7 30 7H20z"/>
  </symbol>
</svg>
